<svg width="87" height="77" viewBox="0 0 87 77" fill="none" xmlns="http://www.w3.org/2000/svg">
<g clip-path="url(#clip0_3184_39155)">
<path d="M38.7952 5.44922C36.1676 5.44922 34.0448 7.57846 34.0448 10.214V25.3866C34.0448 26.2205 33.3767 26.8905 32.5454 26.8905C32.011 26.8905 31.5063 26.6076 31.2391 26.1311L24.1134 13.6386C13.1132 19.0734 5.54223 30.4343 5.54223 43.5671V53.0965H81.549V43.2097C81.4154 30.2258 73.8741 19.0287 62.9778 13.6386L55.8522 26.1311C55.585 26.6076 55.0802 26.8905 54.5458 26.8905C53.7145 26.8905 53.0465 26.2205 53.0465 25.3866V10.214C53.0465 7.57846 50.9236 5.44922 48.296 5.44922H38.7952ZM3.25609 57.8613C1.89034 57.8613 0.791809 58.9631 0.791809 60.333C0.791809 61.0328 1.08871 61.7028 1.65282 62.1049C4.8742 64.4723 17.3886 72.1555 43.5456 72.1555C69.7026 72.1555 82.217 64.4723 85.4384 62.1049C86.0025 61.688 86.2994 61.0328 86.2994 60.333C86.2994 58.9631 85.2009 57.8613 83.8352 57.8613H3.25609Z" fill="white"/>
</g>
<defs>
<clipPath id="clip0_3184_39155">
<rect width="85.5076" height="76.2357" fill="white" transform="translate(0.791809 0.68457)"/>
</clipPath>
</defs>
</svg>
