<svg width="76" height="76" viewBox="0 0 76 76" fill="none" xmlns="http://www.w3.org/2000/svg">
<g clip-path="url(#clip0_3184_39161)">
<path d="M66.8074 9.09668H9.11548C8.02256 9.09668 6.97441 9.53084 6.2016 10.3036C5.42879 11.0765 4.99463 12.1246 4.99463 13.2175V62.6677C4.99463 63.7606 5.42879 64.8088 6.2016 65.5816C6.97441 66.3544 8.02256 66.7886 9.11548 66.7886H66.8074C67.9003 66.7886 68.9484 66.3544 69.7213 65.5816C70.4941 64.8088 70.9282 63.7606 70.9282 62.6677V13.2175C70.9282 12.1246 70.4941 11.0765 69.7213 10.3036C68.9484 9.53084 67.9003 9.09668 66.8074 9.09668ZM19.2528 17.3384C20.4753 17.3384 21.6704 17.7009 22.6869 18.3801C23.7034 19.0593 24.4957 20.0247 24.9635 21.1542C25.4314 22.2837 25.5538 23.5265 25.3153 24.7256C25.0768 25.9246 24.4881 27.026 23.6236 27.8905C22.7591 28.7549 21.6577 29.3437 20.4587 29.5822C19.2596 29.8207 18.0168 29.6983 16.8873 29.2304C15.7578 28.7626 14.7924 27.9703 14.1132 26.9538C13.434 25.9373 13.0715 24.7422 13.0715 23.5197C13.0715 21.8803 13.7227 20.308 14.8819 19.1488C16.0412 17.9896 17.6134 17.3384 19.2528 17.3384ZM13.2363 56.4865V48.0387L25.5989 35.5113C25.9849 35.1276 26.5071 34.9122 27.0515 34.9122C27.5958 34.9122 28.118 35.1276 28.5041 35.5113L33.8406 40.7242L18.0165 56.4865H13.2363ZM62.6865 56.4865H23.8475L36.684 43.65L47.8103 32.5237C48.1963 32.14 48.7185 31.9246 49.2629 31.9246C49.8072 31.9246 50.3294 32.14 50.7155 32.5237L62.6865 44.4948V56.4865Z" fill="white"/>
</g>
<defs>
<clipPath id="clip0_3184_39161">
<rect width="74.1753" height="74.1753" fill="white" transform="translate(0.873779 0.855469)"/>
</clipPath>
</defs>
</svg>
