<svg width="76" height="77" viewBox="0 0 76 77" fill="none" xmlns="http://www.w3.org/2000/svg">
<g clip-path="url(#clip0_3184_39168)">
<path d="M56.4203 29.008V22.7408H50.1532V9.70521C46.1932 7.96379 41.9136 7.06731 37.5876 7.07302C20.2903 7.07302 6.28333 21.1114 6.28333 38.4086C6.28333 55.7059 20.2903 69.7443 37.5876 69.7443C54.9162 69.7443 68.9546 55.7059 68.9546 38.4086C68.9546 35.1184 68.4219 31.9848 67.4818 29.008H56.4203ZM48.5864 25.8744C51.1873 25.8744 53.2868 27.9739 53.2868 30.5747C53.2868 33.1756 51.1873 35.2751 48.5864 35.2751C45.9856 35.2751 43.8861 33.1756 43.8861 30.5747C43.8861 27.9739 45.9856 25.8744 48.5864 25.8744ZM26.6515 25.8744C29.2523 25.8744 31.3518 27.9739 31.3518 30.5747C31.3518 33.1756 29.2523 35.2751 26.6515 35.2751C24.0506 35.2751 21.9511 33.1756 21.9511 30.5747C21.9511 27.9739 24.0506 25.8744 26.6515 25.8744ZM37.6189 55.6432C30.3178 55.6432 24.1133 51.0682 21.6064 44.6758H53.6315C51.1246 51.0682 44.9202 55.6432 37.6189 55.6432ZM68.9546 10.2066H75.2217V16.4737H68.9546V22.7408H62.6875V16.4737H56.4203V10.2066H62.6875V3.93945H68.9546V10.2066Z" fill="white"/>
</g>
<defs>
<clipPath id="clip0_3184_39168">
<rect width="75.2055" height="75.2055" fill="white" transform="translate(0.0161743 0.805664)"/>
</clipPath>
</defs>
</svg>
