<svg width="18" height="18" viewBox="0 0 18 18" fill="none" xmlns="http://www.w3.org/2000/svg">
<path fill-rule="evenodd" clip-rule="evenodd" d="M7.875 10.125C7.875 9.97582 7.93426 9.83274 8.03975 9.72725C8.14524 9.62176 8.28832 9.5625 8.4375 9.5625H12.375C12.5242 9.5625 12.6673 9.62176 12.7727 9.72725C12.8782 9.83274 12.9375 9.97582 12.9375 10.125C12.9375 10.2742 12.8782 10.4173 12.7727 10.5227C12.6673 10.6282 12.5242 10.6875 12.375 10.6875H8.4375C8.28832 10.6875 8.14524 10.6282 8.03975 10.5227C7.93426 10.4173 7.875 10.2742 7.875 10.125ZM7.875 7.3125C7.875 7.16332 7.93426 7.02024 8.03975 6.91475C8.14524 6.80926 8.28832 6.75 8.4375 6.75H12.375C12.5242 6.75 12.6673 6.80926 12.7727 6.91475C12.8782 7.02024 12.9375 7.16332 12.9375 7.3125C12.9375 7.46168 12.8782 7.60476 12.7727 7.71025C12.6673 7.81574 12.5242 7.875 12.375 7.875H8.4375C8.28832 7.875 8.14524 7.81574 8.03975 7.71025C7.93426 7.60476 7.875 7.46168 7.875 7.3125ZM7.875 12.9375C7.875 12.7883 7.93426 12.6452 8.03975 12.5398C8.14524 12.4343 8.28832 12.375 8.4375 12.375H12.375C12.5242 12.375 12.6673 12.4343 12.7727 12.5398C12.8782 12.6452 12.9375 12.7883 12.9375 12.9375C12.9375 13.0867 12.8782 13.2298 12.7727 13.3352C12.6673 13.4407 12.5242 13.5 12.375 13.5H8.4375C8.28832 13.5 8.14524 13.4407 8.03975 13.3352C7.93426 13.2298 7.875 13.0867 7.875 12.9375ZM5.0625 2.8125C5.0625 2.36495 5.24029 1.93572 5.55676 1.61926C5.87322 1.30279 6.30245 1.125 6.75 1.125H11.25C11.6976 1.125 12.1268 1.30279 12.4432 1.61926C12.7597 1.93572 12.9375 2.36495 12.9375 2.8125V3.375C12.9375 3.82255 12.7597 4.25178 12.4432 4.56824C12.1268 4.88471 11.6976 5.0625 11.25 5.0625H6.75C6.30245 5.0625 5.87322 4.88471 5.55676 4.56824C5.24029 4.25178 5.0625 3.82255 5.0625 3.375V2.8125ZM6.75 2.25C6.60082 2.25 6.45774 2.30926 6.35225 2.41475C6.24676 2.52024 6.1875 2.66332 6.1875 2.8125V3.375C6.1875 3.52418 6.24676 3.66726 6.35225 3.77275C6.45774 3.87824 6.60082 3.9375 6.75 3.9375H11.25C11.3992 3.9375 11.5423 3.87824 11.6477 3.77275C11.7532 3.66726 11.8125 3.52418 11.8125 3.375V2.8125C11.8125 2.66332 11.7532 2.52024 11.6477 2.41475C11.5423 2.30926 11.3992 2.25 11.25 2.25H6.75Z" fill="white" stroke="white" stroke-width="0.3"/>
<path d="M6.75 7.3125C6.75 7.46168 6.69074 7.60476 6.58525 7.71025C6.47976 7.81574 6.33668 7.875 6.1875 7.875C6.03832 7.875 5.89524 7.81574 5.78975 7.71025C5.68426 7.60476 5.625 7.46168 5.625 7.3125C5.625 7.16332 5.68426 7.02024 5.78975 6.91475C5.89524 6.80926 6.03832 6.75 6.1875 6.75C6.33668 6.75 6.47976 6.80926 6.58525 6.91475C6.69074 7.02024 6.75 7.16332 6.75 7.3125Z" fill="white" stroke="white" stroke-width="0.3"/>
<path fill-rule="evenodd" clip-rule="evenodd" d="M6.1875 7.03125C6.11291 7.03125 6.04137 7.06088 5.98863 7.11363C5.93588 7.16637 5.90625 7.23791 5.90625 7.3125C5.90625 7.38709 5.93588 7.45863 5.98863 7.51137C6.04137 7.56412 6.11291 7.59375 6.1875 7.59375C6.26209 7.59375 6.33363 7.56412 6.38637 7.51137C6.43912 7.45863 6.46875 7.38709 6.46875 7.3125C6.46875 7.23791 6.43912 7.16637 6.38637 7.11363C6.33363 7.06088 6.26209 7.03125 6.1875 7.03125ZM5.34375 7.3125C5.34375 7.2017 5.36557 7.09198 5.40798 6.98961C5.45038 6.88724 5.51253 6.79423 5.59088 6.71588C5.66923 6.63753 5.76224 6.57538 5.86461 6.53298C5.96698 6.49057 6.0767 6.46875 6.1875 6.46875C6.2983 6.46875 6.40802 6.49057 6.51039 6.53298C6.61276 6.57538 6.70577 6.63753 6.78412 6.71588C6.86247 6.79423 6.92462 6.88724 6.96702 6.98961C7.00943 7.09198 7.03125 7.2017 7.03125 7.3125C7.03125 7.53628 6.94236 7.75089 6.78412 7.90912C6.62589 8.06736 6.41128 8.15625 6.1875 8.15625C5.96372 8.15625 5.74911 8.06736 5.59088 7.90912C5.43264 7.75089 5.34375 7.53628 5.34375 7.3125Z" fill="white" stroke="white" stroke-width="0.3"/>
<path d="M6.75 10.125C6.75 10.2742 6.69074 10.4173 6.58525 10.5227C6.47976 10.6282 6.33668 10.6875 6.1875 10.6875C6.03832 10.6875 5.89524 10.6282 5.78975 10.5227C5.68426 10.4173 5.625 10.2742 5.625 10.125C5.625 9.97582 5.68426 9.83274 5.78975 9.72725C5.89524 9.62176 6.03832 9.5625 6.1875 9.5625C6.33668 9.5625 6.47976 9.62176 6.58525 9.72725C6.69074 9.83274 6.75 9.97582 6.75 10.125Z" fill="white" stroke="white" stroke-width="0.3"/>
<path fill-rule="evenodd" clip-rule="evenodd" d="M6.1875 9.84375C6.11291 9.84375 6.04137 9.87338 5.98863 9.92613C5.93588 9.97887 5.90625 10.0504 5.90625 10.125C5.90625 10.1996 5.93588 10.2711 5.98863 10.3239C6.04137 10.3766 6.11291 10.4062 6.1875 10.4062C6.26209 10.4062 6.33363 10.3766 6.38637 10.3239C6.43912 10.2711 6.46875 10.1996 6.46875 10.125C6.46875 10.0504 6.43912 9.97887 6.38637 9.92613C6.33363 9.87338 6.26209 9.84375 6.1875 9.84375ZM5.34375 10.125C5.34375 10.0142 5.36557 9.90448 5.40798 9.80211C5.45038 9.69974 5.51253 9.60673 5.59088 9.52838C5.66923 9.45003 5.76224 9.38788 5.86461 9.34548C5.96698 9.30307 6.0767 9.28125 6.1875 9.28125C6.2983 9.28125 6.40802 9.30307 6.51039 9.34548C6.61276 9.38788 6.70577 9.45003 6.78412 9.52838C6.86247 9.60673 6.92462 9.69974 6.96702 9.80211C7.00943 9.90448 7.03125 10.0142 7.03125 10.125C7.03125 10.3488 6.94236 10.5634 6.78412 10.7216C6.62589 10.8799 6.41128 10.9688 6.1875 10.9688C5.96372 10.9688 5.74911 10.8799 5.59088 10.7216C5.43264 10.5634 5.34375 10.3488 5.34375 10.125Z" fill="white" stroke="white" stroke-width="0.3"/>
<path d="M6.75 12.9375C6.75 13.0867 6.69074 13.2298 6.58525 13.3352C6.47976 13.4407 6.33668 13.5 6.1875 13.5C6.03832 13.5 5.89524 13.4407 5.78975 13.3352C5.68426 13.2298 5.625 13.0867 5.625 12.9375C5.625 12.7883 5.68426 12.6452 5.78975 12.5398C5.89524 12.4343 6.03832 12.375 6.1875 12.375C6.33668 12.375 6.47976 12.4343 6.58525 12.5398C6.69074 12.6452 6.75 12.7883 6.75 12.9375Z" fill="white" stroke="white" stroke-width="0.3"/>
<path fill-rule="evenodd" clip-rule="evenodd" d="M6.1875 12.6562C6.11291 12.6562 6.04137 12.6859 5.98863 12.7386C5.93588 12.7914 5.90625 12.8629 5.90625 12.9375C5.90625 13.0121 5.93588 13.0836 5.98863 13.1364C6.04137 13.1891 6.11291 13.2188 6.1875 13.2188C6.26209 13.2188 6.33363 13.1891 6.38637 13.1364C6.43912 13.0836 6.46875 13.0121 6.46875 12.9375C6.46875 12.8629 6.43912 12.7914 6.38637 12.7386C6.33363 12.6859 6.26209 12.6562 6.1875 12.6562ZM5.34375 12.9375C5.34375 12.8267 5.36557 12.717 5.40798 12.6146C5.45038 12.5122 5.51253 12.4192 5.59088 12.3409C5.66923 12.2625 5.76224 12.2004 5.86461 12.158C5.96698 12.1156 6.0767 12.0938 6.1875 12.0938C6.2983 12.0938 6.40802 12.1156 6.51039 12.158C6.61276 12.2004 6.70577 12.2625 6.78412 12.3409C6.86247 12.4192 6.92462 12.5122 6.96702 12.6146C7.00943 12.717 7.03125 12.8267 7.03125 12.9375C7.03125 13.1613 6.94236 13.3759 6.78412 13.5341C6.62589 13.6924 6.41128 13.7812 6.1875 13.7812C5.96372 13.7812 5.74911 13.6924 5.59088 13.5341C5.43264 13.3759 5.34375 13.1613 5.34375 12.9375Z" fill="white" stroke="white" stroke-width="0.3"/>
<path fill-rule="evenodd" clip-rule="evenodd" d="M5.0625 3.375C4.76413 3.375 4.47798 3.49353 4.267 3.7045C4.05603 3.91548 3.9375 4.20163 3.9375 4.5V14.625C3.9375 14.9234 4.05603 15.2095 4.267 15.4205C4.47798 15.6315 4.76413 15.75 5.0625 15.75H12.9375C13.2359 15.75 13.522 15.6315 13.733 15.4205C13.944 15.2095 14.0625 14.9234 14.0625 14.625V4.5C14.0625 4.20163 13.944 3.91548 13.733 3.7045C13.522 3.49353 13.2359 3.375 12.9375 3.375H12.375V2.25H12.9375C13.5342 2.25 14.1065 2.48705 14.5285 2.90901C14.9504 3.33097 15.1875 3.90326 15.1875 4.5V14.625C15.1875 15.2217 14.9504 15.794 14.5285 16.216C14.1065 16.6379 13.5342 16.875 12.9375 16.875H5.0625C4.46576 16.875 3.89347 16.6379 3.47151 16.216C3.04955 15.794 2.8125 15.2217 2.8125 14.625V4.5C2.8125 3.90326 3.04955 3.33097 3.47151 2.90901C3.89347 2.48705 4.46576 2.25 5.0625 2.25H5.625V3.375H5.0625Z" fill="white" stroke="white" stroke-width="0.3"/>
</svg>
