<svg width="20" height="21" viewBox="0 0 20 21" fill="none" xmlns="http://www.w3.org/2000/svg">
<path d="M17.1424 0.488281C16.7479 0.488281 16.4281 0.808077 16.4281 1.20258V3.81184C12.7507 0.251563 6.88343 0.346568 3.32315 4.02395C1.64527 5.75704 0.709231 8.07603 0.713884 10.4883C0.713884 10.8828 1.03368 11.2026 1.42818 11.2026C1.82269 11.2026 2.14244 10.8828 2.14244 10.4883C2.14332 6.14889 5.66175 2.63181 10.0012 2.63269C11.0911 2.6329 12.1691 2.8599 13.1667 3.29925C14.1642 3.7386 15.0594 4.38068 15.7953 5.18469L12.6311 6.23967C12.2563 6.36435 12.0535 6.76919 12.1782 7.14394C12.3029 7.51869 12.7077 7.72147 13.0825 7.59679L17.3682 6.16823C17.5108 6.12071 17.6348 6.02941 17.7225 5.90732C17.8103 5.78524 17.8572 5.63859 17.8568 5.48825V1.20254C17.8567 0.808077 17.5369 0.488281 17.1424 0.488281ZM18.571 9.774C18.1765 9.774 17.8567 10.0938 17.8567 10.4883C17.8558 14.8277 14.3374 18.3448 9.99797 18.3439C8.90799 18.3437 7.82998 18.1167 6.83247 17.6773C5.83495 17.238 4.93976 16.5959 4.20381 15.7919L7.36808 14.7369C7.74283 14.6122 7.9456 14.2074 7.82093 13.8326C7.69625 13.4579 7.29141 13.2551 6.91666 13.3798L2.63095 14.8083C2.48832 14.8558 2.36431 14.9472 2.27659 15.0692C2.18886 15.1913 2.14189 15.338 2.14236 15.4883V19.774C2.14236 20.1685 2.46215 20.4883 2.85666 20.4883C3.25116 20.4883 3.57096 20.1685 3.57096 19.774V17.1647C7.24838 20.725 13.1157 20.63 16.6759 16.9526C18.3538 15.2195 19.2899 12.9005 19.2852 10.4883C19.2853 10.0938 18.9655 9.774 18.571 9.774Z" fill="#888888"/>
</svg>
