<svg width="24" height="24" viewBox="0 0 24 24" fill="none" xmlns="http://www.w3.org/2000/svg">
<g clip-path="url(#clip0_2021_29204)">
<path d="M19.3664 1.8478H18.4712V0.941966C18.4712 0.424415 18.0516 0.00488281 17.5341 0.00488281C17.0165 0.00488281 16.597 0.424415 16.597 0.941966V1.8478H7.40295V0.941966C7.40295 0.424415 6.98342 0.00488281 6.46587 0.00488281C5.94832 0.00488281 5.52879 0.424415 5.52879 0.941966V1.8478H4.63364C2.07864 1.8478 0 3.92643 0 6.48139V19.3606C0 21.9156 2.07864 23.9942 4.63364 23.9942H19.3664C21.9214 23.9942 24 21.9156 24 19.3606V6.48139C24 3.92643 21.9214 1.8478 19.3664 1.8478ZM4.63364 3.72196H5.52879V5.54927C5.52879 6.06682 5.94832 6.48636 6.46587 6.48636C6.98342 6.48636 7.40295 6.06682 7.40295 5.54927V3.72196H16.597V5.54927C16.597 6.06682 17.0166 6.48636 17.5341 6.48636C18.0517 6.48636 18.4712 6.06682 18.4712 5.54927V3.72196H19.3664C20.8879 3.72196 22.1258 4.95985 22.1258 6.48139V7.37659H1.87417V6.48139C1.87417 4.95985 3.11205 3.72196 4.63364 3.72196ZM19.3664 22.12H4.63364C3.11205 22.12 1.87417 20.8821 1.87417 19.3606V9.25075H22.1258V19.3606C22.1258 20.8821 20.8879 22.12 19.3664 22.12ZM8.32443 12.9366C8.32443 13.4542 7.9049 13.8737 7.38735 13.8737H5.54444C5.02689 13.8737 4.60735 13.4542 4.60735 12.9366C4.60735 12.4191 5.02689 11.9995 5.54444 11.9995H7.38735C7.90485 11.9995 8.32443 12.4191 8.32443 12.9366ZM19.3927 12.9366C19.3927 13.4542 18.9732 13.8737 18.4556 13.8737H16.6127C16.0951 13.8737 15.6756 13.4542 15.6756 12.9366C15.6756 12.4191 16.0951 11.9995 16.6127 11.9995H18.4556C18.9731 11.9995 19.3927 12.4191 19.3927 12.9366ZM13.8532 12.9366C13.8532 13.4542 13.4337 13.8737 12.9161 13.8737H11.0732C10.5557 13.8737 10.1361 13.4542 10.1361 12.9366C10.1361 12.4191 10.5557 11.9995 11.0732 11.9995H12.9161C13.4336 11.9995 13.8532 12.4191 13.8532 12.9366ZM8.32443 18.4654C8.32443 18.983 7.9049 19.4025 7.38735 19.4025H5.54444C5.02689 19.4025 4.60735 18.983 4.60735 18.4654C4.60735 17.9479 5.02689 17.5283 5.54444 17.5283H7.38735C7.90485 17.5283 8.32443 17.9479 8.32443 18.4654ZM19.3927 18.4654C19.3927 18.983 18.9732 19.4025 18.4556 19.4025H16.6127C16.0951 19.4025 15.6756 18.983 15.6756 18.4654C15.6756 17.9479 16.0951 17.5283 16.6127 17.5283H18.4556C18.9731 17.5283 19.3927 17.9479 19.3927 18.4654ZM13.8532 18.4654C13.8532 18.983 13.4337 19.4025 12.9161 19.4025H11.0732C10.5557 19.4025 10.1361 18.983 10.1361 18.4654C10.1361 17.9479 10.5557 17.5283 11.0732 17.5283H12.9161C13.4336 17.5283 13.8532 17.9479 13.8532 18.4654Z" fill="#888888"/>
</g>
<defs>
<clipPath id="clip0_2021_29204">
<rect width="24" height="24" fill="white"/>
</clipPath>
</defs>
</svg>
