<svg width="49" height="27" viewBox="0 0 49 27" fill="none" xmlns="http://www.w3.org/2000/svg">
<mask id="mask0_1694_26216" style="mask-type:luminance" maskUnits="userSpaceOnUse" x="0" y="3" width="50" height="21">
<path d="M49.8094 3.46094H0.0507812V23.5725H49.8094V3.46094Z" fill="white"/>
</mask>
<g mask="url(#mask0_1694_26216)">
<path d="M3 11.4375C4.925 11.4375 6.575 11.4375 8.5 11.4375C10.425 11.4375 12.075 10.0625 14 10.0625C15.925 10.0625 17.575 19 19.5 19C21.425 19 23.075 15.5625 25 15.5625C26.925 15.5625 28.575 12.125 30.5 12.125C32.425 12.125 34.075 18.3125 36 18.3125C37.925 18.3125 39.575 8 41.5 8C43.425 8 45.075 16.9375 47 16.9375" stroke="#007A5A" stroke-width="1.5"/>
</g>
</svg>
