<svg width="41" height="40" viewBox="0 0 41 40" fill="none" xmlns="http://www.w3.org/2000/svg">
<g clip-path="url(#clip0_1694_27611)">
<path fill-rule="evenodd" clip-rule="evenodd" d="M37.8691 9.83874V5.66366C37.8691 3.69444 36.267 2.09241 34.2978 2.09241H4.07125C2.10203 2.09241 0.5 3.69444 0.5 5.66366V24.0672C0.5 26.0364 2.10203 27.6385 4.07125 27.6385H12.4402L11.9767 31.3909H9.90172C8.105 31.3909 6.64336 32.8526 6.64336 34.6494C6.64336 36.446 8.105 37.9077 9.90172 37.9077H27.0004H36.7536C38.8194 37.9077 40.5 36.2271 40.5 34.1613V13.4155C40.5 11.738 39.3918 10.3146 37.8691 9.83874ZM3 24.0672V5.66366C3 5.07295 3.48055 4.59241 4.07125 4.59241H34.2977C34.8884 4.59241 35.369 5.07295 35.369 5.66366V9.6692H27.0004C24.9347 9.6692 23.2541 11.3498 23.2541 13.4156V25.1385H4.07125C3.48055 25.1384 3 24.6579 3 24.0672ZM14.9592 27.6384H23.2541V31.3908H14.4958L14.9592 27.6384ZM9.14336 34.6493C9.14336 34.2382 9.49063 33.8908 9.90172 33.8908H23.2541V34.1612C23.2541 34.598 23.33 35.0173 23.468 35.4076H9.90172C9.4907 35.4076 9.14336 35.0603 9.14336 34.6493ZM38 34.1612C38 34.8485 37.4409 35.4076 36.7536 35.4076H27.0004C26.3132 35.4076 25.7541 34.8485 25.7541 34.1612V13.4155C25.7541 12.7283 26.3132 12.1691 27.0004 12.1691H36.7536C37.4409 12.1691 38 12.7283 38 13.4155V34.1612ZM33.6931 31.7822C33.6931 32.7824 32.8773 33.5983 31.877 33.5983C30.8767 33.5983 30.0609 32.7824 30.0609 31.7822C30.0609 30.7819 30.8768 29.9661 31.877 29.9661C32.8773 29.9661 33.6931 30.7819 33.6931 31.7822Z" fill="#2C5850" fill-opacity="0.7"/>
</g>
<defs>
<clipPath id="clip0_1694_27611">
<rect width="40" height="40" fill="white" transform="translate(0.5)"/>
</clipPath>
</defs>
</svg>
