<svg width="18" height="17" viewBox="0 0 18 17" fill="none" xmlns="http://www.w3.org/2000/svg">
<path d="M8.2093 2.76109H5.07829C3.82577 2.76109 3.19951 2.76109 2.72111 3.00484C2.3003 3.21926 1.95817 3.56139 1.74376 3.9822C1.5 4.4606 1.5 5.08686 1.5 6.33938V12.6014C1.5 13.8539 1.5 14.4802 1.74376 14.9586C1.95817 15.3794 2.3003 15.7215 2.72111 15.9359C3.19951 16.1797 3.82577 16.1797 5.07829 16.1797H11.3403C12.5928 16.1797 13.2191 16.1797 13.6975 15.9359C14.1183 15.7215 14.4604 15.3794 14.6748 14.9586C14.9186 14.4802 14.9186 13.8539 14.9186 12.6014V9.47039M5.97285 11.7068H7.22118C7.58586 11.7068 7.76819 11.7068 7.93978 11.6656C8.09192 11.6291 8.23735 11.5689 8.37075 11.4871C8.52121 11.3949 8.65014 11.266 8.90801 11.0081L16.0368 3.8793C16.6544 3.26173 16.6544 2.26044 16.0368 1.64287C15.4192 1.02529 14.418 1.02529 13.8004 1.64287L6.67156 8.77168C6.41369 9.02954 6.28476 9.15848 6.19255 9.30894C6.11081 9.44234 6.05057 9.58777 6.01404 9.73991C5.97285 9.9115 5.97285 10.0938 5.97285 10.4585V11.7068Z" stroke="#1972F9" stroke-width="1.5" stroke-linecap="round" stroke-linejoin="round"/>
</svg>
