<svg width="25" height="24" viewBox="0 0 25 24" fill="none" xmlns="http://www.w3.org/2000/svg">
<path fill-rule="evenodd" clip-rule="evenodd" d="M21.1231 12.0901C19.3807 15.2191 16.0763 17.1629 12.5012 17.1629C8.9237 17.1629 5.61932 15.2191 3.87686 12.0901C3.74266 11.8471 3.74266 11.5903 3.87686 11.3475C5.61932 8.21856 8.9237 6.27501 12.5012 6.27501C16.0763 6.27501 19.3807 8.21856 21.1231 11.3475C21.2597 11.5903 21.2597 11.8471 21.1231 12.0901ZM22.2362 10.7272C20.2693 7.19436 16.5391 5 12.5012 5C8.46088 5 4.73071 7.19436 2.7638 10.7272C2.41207 11.3575 2.41207 12.0801 2.7638 12.71C4.73071 16.2428 8.46088 18.4376 12.5012 18.4376C16.5391 18.4376 20.2693 16.2428 22.2362 12.71C22.5879 12.0802 22.5879 11.3575 22.2362 10.7272ZM12.5012 14.3342C13.9428 14.3342 15.116 13.161 15.116 11.7187C15.116 10.2764 13.9428 9.1032 12.5012 9.1032C11.0572 9.1032 9.88401 10.2764 9.88401 11.7187C9.88401 13.161 11.0572 14.3342 12.5012 14.3342ZM12.5012 7.82819C10.3537 7.82819 8.609 9.57365 8.609 11.7188C8.609 13.8643 10.3538 15.6091 12.5012 15.6091C14.6463 15.6091 16.391 13.8643 16.391 11.7188C16.391 9.57365 14.6463 7.82819 12.5012 7.82819Z" fill="#95B29B" stroke="#95B29B" stroke-width="0.5"/>
</svg>
