<svg width="24" height="24" viewBox="0 0 24 24" fill="none" xmlns="http://www.w3.org/2000/svg">
<path d="M14.483 11.6684L15.6189 10.5325C15.7016 10.8417 15.75 11.165 15.75 11.5C15.75 13.5678 14.0678 15.25 12 15.25C11.665 15.25 11.3417 15.2015 11.0325 15.1189L12.1684 13.983C12.7688 13.9422 13.3342 13.6852 13.7597 13.2597C14.1852 12.8341 14.4422 12.2688 14.483 11.6684ZM21.9212 11.1964C21.8444 11.0581 20.7541 9.14764 18.6228 7.52857L17.7133 8.43811C19.2673 9.58076 20.252 10.9134 20.6397 11.5009C19.8989 12.6289 16.993 16.5 12 16.5C11.2512 16.5 10.555 16.4042 9.89983 16.2514L8.8728 17.2784C9.81702 17.568 10.8548 17.75 12 17.75C18.5426 17.75 21.7864 12.0462 21.9212 11.8036C21.9729 11.7107 22 11.6062 22 11.5C22 11.3937 21.9729 11.2892 21.9212 11.1964ZM19.3169 5.06685L5.56686 18.8169C5.44483 18.9389 5.28483 19 5.12498 19C4.96514 19 4.80514 18.9389 4.68311 18.8169C4.62504 18.7589 4.57897 18.69 4.54753 18.6142C4.5161 18.5383 4.49992 18.4571 4.49992 18.375C4.49992 18.2929 4.5161 18.2116 4.54753 18.1358C4.57897 18.06 4.62504 17.9911 4.68311 17.9331L6.43249 16.1837C3.60436 14.4764 2.16733 11.9631 2.07873 11.8036C2.0271 11.7107 2 11.6062 2 11.4999C2 11.3936 2.0271 11.2891 2.07873 11.1962C2.21358 10.9537 5.45733 5.24998 12 5.24998C13.6917 5.24998 15.157 5.63592 16.4097 6.20654L18.4331 4.1831C18.6773 3.93888 19.0728 3.93888 19.3169 4.1831C19.5609 4.42732 19.5611 4.82279 19.3169 5.06685ZM7.36452 15.2517L8.94686 13.6694C8.50983 13.0562 8.24999 12.3086 8.24999 11.5C8.24999 9.43217 9.93217 7.74998 12 7.74998C12.8086 7.74998 13.5562 8.00982 14.1694 8.4467L15.4489 7.16717C14.438 6.76232 13.2892 6.49998 12 6.49998C7.00702 6.49998 4.10108 10.3711 3.36045 11.499C3.83076 12.2119 5.18264 14.0162 7.36452 15.2517ZM9.85421 12.7619L13.2619 9.3542C12.8901 9.13467 12.4622 8.99998 12 8.99998C10.6215 8.99998 9.49999 10.1215 9.49999 11.5C9.49999 11.9622 9.63467 12.3901 9.85421 12.7619Z" fill="#95B29B" stroke="#95B29B" stroke-width="0.5"/>
</svg>
