<svg width="24" height="24" viewBox="0 0 24 24" fill="none" xmlns="http://www.w3.org/2000/svg">
<path d="M18.7528 20.7306H13.6036V15.5275H15.3053C15.7368 15.5275 15.9918 15.0371 15.7368 14.684L12.4266 10.1037C12.2158 9.80947 11.7793 9.80947 11.5684 10.1037L8.25827 14.684C8.00327 15.0371 8.25337 15.5275 8.68982 15.5275H10.3915V20.7306H4.62444C2.04986 20.5884 0 18.1805 0 15.5716C0 13.7719 0.975889 12.2026 2.42256 11.3542C2.29015 10.9962 2.2215 10.6137 2.2215 10.2116C2.2215 8.3726 3.7074 6.8867 5.54638 6.8867C5.9436 6.8867 6.32611 6.95536 6.6841 7.08777C7.74826 4.83194 10.0433 3.26758 12.7111 3.26758C16.1635 3.27248 19.0078 5.91572 19.3314 9.28474C21.9845 9.74081 24 12.1977 24 14.9782C24 17.95 21.6853 20.5246 18.7528 20.7306Z" fill="white"/>
</svg>
