<svg width="25" height="24" viewBox="0 0 25 24" fill="none" xmlns="http://www.w3.org/2000/svg">
<path fill-rule="evenodd" clip-rule="evenodd" d="M7.81307 19.5C8.03557 18.638 8.81907 18 9.75007 18C10.6811 18 11.4646 18.638 11.6871 19.5H22.5001C22.6289 19.4996 22.7529 19.5491 22.846 19.6382C22.9391 19.7272 22.9941 19.8488 22.9996 19.9775C23.0046 20.0833 22.9759 20.1879 22.9174 20.2762C22.859 20.3645 22.7739 20.4318 22.6746 20.4685C22.6197 20.4889 22.5616 20.4996 22.5031 20.5H11.6871C11.4646 21.362 10.6811 22 9.75007 22C8.81907 22 8.03557 21.362 7.81307 20.5H2.50007C2.41823 20.4995 2.33774 20.4791 2.26562 20.4404C2.1935 20.4017 2.13193 20.3459 2.08628 20.278C2.04063 20.2101 2.01228 20.132 2.0037 20.0506C1.99513 19.9692 2.00658 19.887 2.03707 19.811C2.07479 19.7192 2.13893 19.6406 2.22135 19.5852C2.30378 19.5298 2.40078 19.5002 2.50007 19.5H7.81307ZM9.75007 19C9.88143 19 10.0115 19.0259 10.1328 19.0762C10.2542 19.1265 10.3644 19.2002 10.4573 19.2931C10.5501 19.386 10.6238 19.4963 10.674 19.6177C10.7243 19.7391 10.7501 19.8691 10.7501 20.0005C10.75 20.1319 10.7241 20.2619 10.6738 20.3833C10.6235 20.5046 10.5498 20.6149 10.4569 20.7077C10.364 20.8006 10.2537 20.8742 10.1324 20.9245C10.011 20.9747 9.88093 21.0005 9.74957 21.0005C9.48429 21.0004 9.2299 20.895 9.04236 20.7074C8.85483 20.5197 8.74951 20.2653 8.74957 20C8.74964 19.7347 8.85509 19.4803 9.04272 19.2928C9.23035 19.1053 9.48479 18.9999 9.75007 19ZM15.8131 11.5C16.0356 10.638 16.8191 10 17.7501 10C18.6811 10 19.4646 10.638 19.6871 11.5H22.5001C22.6289 11.4996 22.7529 11.5491 22.846 11.6382C22.9391 11.7272 22.9941 11.8488 22.9996 11.9775C23.0046 12.0833 22.9759 12.1879 22.9174 12.2762C22.859 12.3645 22.7739 12.4318 22.6746 12.4685C22.6197 12.4889 22.5616 12.4996 22.5031 12.5H19.6871C19.4646 13.362 18.6811 14 17.7501 14C16.8191 14 16.0356 13.362 15.8131 12.5H2.50007C2.37125 12.5004 2.24728 12.4509 2.15416 12.3618C2.06104 12.2728 2.006 12.1512 2.00057 12.0225C1.99547 11.9163 2.02451 11.8112 2.08344 11.7227C2.14238 11.6341 2.2281 11.5668 2.32807 11.5305C2.38313 11.5102 2.44138 11.4998 2.50007 11.5H15.8131ZM17.7501 11C17.8814 11 18.0115 11.0259 18.1328 11.0762C18.2542 11.1265 18.3644 11.2002 18.4573 11.2931C18.5501 11.386 18.6238 11.4963 18.674 11.6177C18.7243 11.7391 18.7501 11.8691 18.7501 12.0005C18.75 12.1319 18.7241 12.2619 18.6738 12.3833C18.6235 12.5046 18.5498 12.6149 18.4569 12.7077C18.364 12.8006 18.2537 12.8742 18.1324 12.9245C18.011 12.9747 17.8809 13.0005 17.7496 13.0005C17.4843 13.0004 17.2299 12.895 17.0424 12.7074C16.8548 12.5197 16.7495 12.2653 16.7496 12C16.7496 11.7347 16.8551 11.4803 17.0427 11.2928C17.2303 11.1053 17.4848 10.9999 17.7501 11ZM4.56307 3.5C4.78557 2.638 5.56907 2 6.50007 2C7.43107 2 8.21457 2.638 8.43707 3.5H22.5001C22.6289 3.49963 22.7529 3.54914 22.846 3.63816C22.9391 3.72718 22.9941 3.84879 22.9996 3.9775C23.0046 4.08326 22.9759 4.18788 22.9174 4.27618C22.859 4.36447 22.7739 4.43184 22.6746 4.4685C22.6197 4.48894 22.5616 4.49961 22.5031 4.5H8.43707C8.21457 5.362 7.43107 6 6.50007 6C5.56907 6 4.78557 5.362 4.56307 4.5H2.50007C2.41823 4.49953 2.33774 4.47906 2.26562 4.44037C2.1935 4.40167 2.13193 4.34593 2.08628 4.278C2.04063 4.21007 2.01228 4.132 2.0037 4.05061C1.99513 3.96921 2.00658 3.88696 2.03707 3.811C2.07479 3.71915 2.13893 3.64056 2.22135 3.5852C2.30378 3.52983 2.40078 3.50018 2.50007 3.5H4.56307ZM6.50007 3C6.76536 3.00007 7.01975 3.10551 7.20728 3.29314C7.39482 3.48077 7.50014 3.73522 7.50007 4.0005C7.50001 4.26578 7.39456 4.52017 7.20693 4.70771C7.0193 4.89525 6.76486 5.00057 6.49957 5.0005C6.23429 5.00043 5.9799 4.89499 5.79236 4.70736C5.6995 4.61445 5.62585 4.50417 5.57562 4.3828C5.52538 4.26143 5.49954 4.13135 5.49957 4C5.49961 3.86865 5.52551 3.73858 5.57581 3.61724C5.62611 3.4959 5.69981 3.38565 5.79272 3.29279C5.98035 3.10525 6.23479 2.99993 6.50007 3Z" fill="#007A5A"/>
</svg>
