<svg width="16" height="16" viewBox="0 0 16 16" fill="none" xmlns="http://www.w3.org/2000/svg">
<path d="M15.1111 4.81339L9.77779 0.610415C9.28889 0.217322 8.65596 0 8.00003 0C7.34409 0 6.71117 0.217322 6.22226 0.610415L0.888967 4.81339C0.60663 5.04037 0.381326 5.31883 0.228058 5.6302C0.0747893 5.94158 -0.0029267 6.27874 8.42608e-05 6.61923V13.6029C8.42608e-05 14.2386 0.281034 14.8483 0.781127 15.2979C1.28122 15.7474 1.95949 16 2.66673 16H13.3333C14.0406 16 14.7188 15.7474 15.2189 15.2979C15.719 14.8483 16 14.2386 16 13.6029V6.61123C16.0017 6.27209 15.9234 5.93647 15.7702 5.62656C15.6169 5.31664 15.3923 5.03948 15.1111 4.81339ZM9.77779 14.4019H6.22226V10.4067C6.22226 10.1948 6.31591 9.99153 6.48261 9.84168C6.64931 9.69183 6.8754 9.60765 7.11114 9.60765H8.88891C9.12466 9.60765 9.35075 9.69183 9.51744 9.84168C9.68414 9.99153 9.77779 10.1948 9.77779 10.4067V14.4019ZM14.2222 13.6029C14.2222 13.8148 14.1286 14.018 13.9619 14.1679C13.7952 14.3177 13.5691 14.4019 13.3333 14.4019H11.5556V10.4067C11.5556 9.77093 11.2746 9.16121 10.7745 8.71166C10.2744 8.26211 9.59615 8.00956 8.88891 8.00956H7.11114C6.40391 8.00956 5.72563 8.26211 5.22554 8.71166C4.72545 9.16121 4.4445 9.77093 4.4445 10.4067V14.4019H2.66673C2.43099 14.4019 2.2049 14.3177 2.0382 14.1679C1.8715 14.018 1.77785 13.8148 1.77785 13.6029V6.61123C1.77801 6.49778 1.80504 6.38566 1.85715 6.28233C1.90926 6.179 1.98525 6.08683 2.08007 6.01195L7.41336 1.81697C7.57558 1.68887 7.78411 1.61822 8.00003 1.61822C8.21594 1.61822 8.42448 1.68887 8.58669 1.81697L13.92 6.01195C14.0148 6.08683 14.0908 6.179 14.1429 6.28233C14.195 6.38566 14.222 6.49778 14.2222 6.61123V13.6029Z" fill="#71839B"/>
</svg>
