<svg width="18" height="18" viewBox="0 0 18 18" fill="none" xmlns="http://www.w3.org/2000/svg">
<g clip-path="url(#clip0_1694_26205)">
<path d="M8.49865 12.3359C8.02339 12.3359 7.625 12.7578 7.625 13.261C7.625 13.7642 8.02339 14.186 8.49865 14.186C8.95645 14.186 9.37231 13.7642 9.35134 13.2832C9.37231 12.7541 8.97741 12.3359 8.49865 12.3359Z" fill="white" stroke="white" stroke-width="0.3"/>
<path d="M16.5863 15.6149C17.135 14.6121 17.1385 13.4169 16.5933 12.4179L11.1207 2.38302C10.5791 1.37287 9.60059 0.773438 8.50328 0.773438C7.40597 0.773438 6.42748 1.37657 5.88582 2.37931L0.406265 12.4253C-0.138894 13.4354 -0.135399 14.638 0.416749 15.6408C0.961909 16.6324 1.93691 17.2281 3.02722 17.2281H13.9584C15.0522 17.2281 16.0342 16.625 16.5863 15.6149ZM15.3981 14.8896C15.0941 15.4446 14.5559 15.774 13.9549 15.774H3.02373C2.42965 15.774 1.89497 15.452 1.59793 14.9081C1.29739 14.3568 1.2939 13.6982 1.59443 13.1431L7.07398 3.10085C7.37103 2.54952 7.90221 2.22391 8.50328 2.22391C9.10086 2.22391 9.63553 2.55322 9.93258 3.10455L15.4086 13.1468C15.7022 13.6871 15.6987 14.3383 15.3981 14.8896Z" fill="white" stroke="white" stroke-width="0.3"/>
<path d="M8.28383 5.84252C7.86798 5.96833 7.60938 6.36795 7.60938 6.85267C7.63034 7.14498 7.64782 7.441 7.66878 7.73331C7.72819 8.84707 7.7876 9.93862 7.84701 11.0524C7.86798 11.4298 8.14405 11.7036 8.5005 11.7036C8.85695 11.7036 9.13652 11.4113 9.15399 11.0302C9.15399 10.8008 9.15399 10.5899 9.17496 10.3567C9.2134 9.6426 9.25534 8.92847 9.29378 8.21434C9.31474 7.75181 9.35319 7.28929 9.37415 6.82677C9.37415 6.66026 9.35319 6.51225 9.29378 6.36425C9.11555 5.94983 8.69969 5.73892 8.28383 5.84252Z" fill="white" stroke="white" stroke-width="0.3"/>
</g>
<defs>
<clipPath id="clip0_1694_26205">
<rect width="18" height="18" fill="white"/>
</clipPath>
</defs>
</svg>
