<svg width="16" height="17" viewBox="0 0 16 17" fill="none" xmlns="http://www.w3.org/2000/svg">
<path d="M12.5 0H2.5C1.83696 0 1.20107 0.263392 0.732233 0.732233C0.263392 1.20107 0 1.83696 0 2.5V11.6667C0 12.3297 0.263392 12.9656 0.732233 13.4344C1.20107 13.9033 1.83696 14.1667 2.5 14.1667H4.65833L6.90833 16.425C6.9862 16.5022 7.07855 16.5633 7.18008 16.6048C7.28161 16.6463 7.39033 16.6673 7.5 16.6667C7.69862 16.6667 7.89071 16.5958 8.04167 16.4667L10.725 14.1667H12.5C13.163 14.1667 13.7989 13.9033 14.2678 13.4344C14.7366 12.9656 15 12.3297 15 11.6667V2.5C15 1.83696 14.7366 1.20107 14.2678 0.732233C13.7989 0.263392 13.163 0 12.5 0ZM13.3333 11.6667C13.3333 11.8877 13.2455 12.0996 13.0893 12.2559C12.933 12.4122 12.721 12.5 12.5 12.5H10.4167C10.218 12.5 10.026 12.5709 9.875 12.7L7.54167 14.7L5.59167 12.7417C5.5138 12.6644 5.42145 12.6033 5.31992 12.5619C5.21839 12.5204 5.10967 12.4994 5 12.5H2.5C2.27899 12.5 2.06702 12.4122 1.91074 12.2559C1.75446 12.0996 1.66667 11.8877 1.66667 11.6667V2.5C1.66667 2.27899 1.75446 2.06702 1.91074 1.91074C2.06702 1.75446 2.27899 1.66667 2.5 1.66667H12.5C12.721 1.66667 12.933 1.75446 13.0893 1.91074C13.2455 2.06702 13.3333 2.27899 13.3333 2.5V11.6667Z" fill="#71839B"/>
</svg>
