<svg width="41" height="40" viewBox="0 0 41 40" fill="none" xmlns="http://www.w3.org/2000/svg">
<path d="M20.5 30H20.5167M15.8333 35H25.1667C27.0335 35 27.9669 35 28.68 34.6367C29.3072 34.3171 29.8171 33.8072 30.1367 33.18C30.5 32.4669 30.5 31.5335 30.5 29.6667V10.3333C30.5 8.46649 30.5 7.53307 30.1367 6.82003C29.8171 6.19282 29.3072 5.68289 28.68 5.36331C27.9669 5 27.0335 5 25.1667 5H15.8333C13.9665 5 13.0331 5 12.32 5.36331C11.6928 5.68289 11.1829 6.19282 10.8633 6.82003C10.5 7.53307 10.5 8.46649 10.5 10.3333V29.6667C10.5 31.5335 10.5 32.4669 10.8633 33.18C11.1829 33.8072 11.6928 34.3171 12.32 34.6367C13.0331 35 13.9665 35 15.8333 35Z" stroke="#2C5850" stroke-opacity="0.7" stroke-width="2" stroke-linecap="round" stroke-linejoin="round"/>
</svg>
