<svg width="35" height="36" viewBox="0 0 35 36" fill="none" xmlns="http://www.w3.org/2000/svg">
<g clip-path="url(#clip0_1948_894)">
<path d="M27.7492 5.08565H24.5827V3.66911C24.5827 3.21081 24.0828 3.00251 23.6245 3.00251H21.1664C20.5831 1.33597 19.1249 0.502698 17.4584 0.502698C15.8102 0.440735 14.311 1.45136 13.7503 3.00251H11.3338C10.8755 3.00251 10.4172 3.21081 10.4172 3.66911V5.08565H7.25073C5.3743 5.10566 3.83918 6.58592 3.75098 8.46036V32.3335C3.75098 34.1667 5.41752 35.4999 7.25073 35.4999H27.7492C29.5824 35.4999 31.2489 34.1667 31.2489 32.3335V8.46044C31.1607 6.58592 29.6256 5.10566 27.7492 5.08565ZM12.0837 4.66905H14.3752C14.5701 4.64528 14.7521 4.55958 14.8946 4.42458C15.0372 4.28958 15.1326 4.1124 15.1668 3.91912C15.4136 2.84461 16.3563 2.0733 17.4584 2.04428C18.5502 2.07737 19.4787 2.85107 19.7082 3.91912C19.7445 4.11871 19.846 4.30061 19.9968 4.43632C20.1476 4.57203 20.3391 4.65388 20.5414 4.66905H22.9163V8.00213H12.0837V4.66905ZM29.5824 32.3336C29.5824 33.2502 28.6658 33.8334 27.7492 33.8334H7.25073C6.33412 33.8334 5.41752 33.2502 5.41752 32.3336V8.46044C5.50253 7.50635 6.29297 6.76973 7.25073 6.75227H10.4171V8.87711C10.4612 9.34395 10.8655 9.69316 11.3337 9.66875H23.6244C23.8544 9.68134 24.0807 9.60687 24.2582 9.46018C24.4358 9.31349 24.5516 9.10533 24.5827 8.87711V6.75219H27.7491C28.7068 6.76973 29.4973 7.50627 29.5823 8.46036V32.3336H29.5824Z" fill="#888888"/>
<path d="M14.2915 19.1261C13.9789 18.7967 13.4601 18.7781 13.1249 19.0845L10.4584 21.6259L9.33347 20.4593C9.02095 20.1299 8.50212 20.1114 8.16686 20.4177C8.01149 20.5805 7.9248 20.7968 7.9248 21.0218C7.9248 21.2468 8.01149 21.4632 8.16686 21.6259L9.87503 23.3758C9.94806 23.4576 10.0381 23.5224 10.1389 23.5656C10.2397 23.6088 10.3487 23.6293 10.4583 23.6258C10.6781 23.6227 10.8877 23.5329 11.0416 23.3758L14.2913 20.2928C14.6135 19.9972 14.635 19.4964 14.3394 19.1743C14.3242 19.1575 14.3082 19.1414 14.2915 19.1261ZM26.2489 20.9176H16.6663C16.2061 20.9176 15.833 21.2907 15.833 21.7509C15.833 22.2111 16.2061 22.5842 16.6663 22.5842H26.2489C26.7091 22.5842 27.0822 22.2111 27.0822 21.7509C27.0822 21.2907 26.7091 20.9176 26.2489 20.9176ZM14.2915 12.46C13.9789 12.1305 13.4601 12.112 13.1249 12.4183L10.4584 14.9598L9.33347 13.7932C9.02095 13.4637 8.50212 13.4452 8.16686 13.7515C8.01149 13.9143 7.9248 14.1307 7.9248 14.3557C7.9248 14.5807 8.01149 14.797 8.16686 14.9598L9.87503 16.7097C9.94806 16.7914 10.0381 16.8562 10.1389 16.8994C10.2397 16.9426 10.3487 16.9632 10.4583 16.9597C10.6781 16.9566 10.8877 16.8667 11.0416 16.7097L14.2913 13.6266C14.6135 13.331 14.635 12.8302 14.3394 12.5081C14.3242 12.4913 14.3082 12.4752 14.2915 12.46ZM26.2489 14.2515H16.6663C16.2061 14.2515 15.833 14.6245 15.833 15.0847C15.833 15.545 16.2061 15.918 16.6663 15.918H26.2489C26.7091 15.918 27.0822 15.545 27.0822 15.0847C27.0822 14.6245 26.7091 14.2515 26.2489 14.2515ZM14.2915 25.7922C13.9789 25.4628 13.4601 25.4443 13.1249 25.7506L10.4584 28.292L9.33347 27.1254C9.02095 26.796 8.50212 26.7775 8.16686 27.0838C8.01149 27.2466 7.9248 27.4629 7.9248 27.6879C7.9248 27.9129 8.01149 28.1293 8.16686 28.292L9.87503 30.0419C9.94806 30.1237 10.0381 30.1885 10.1389 30.2317C10.2397 30.2749 10.3487 30.2954 10.4583 30.2919C10.6781 30.2888 10.8877 30.1989 11.0416 30.0419L14.2913 26.9588C14.6135 26.6633 14.635 26.1625 14.3394 25.8404C14.3242 25.8236 14.3082 25.8075 14.2915 25.7922ZM26.2489 27.5838H16.6663C16.2061 27.5838 15.833 27.9569 15.833 28.4171C15.833 28.8773 16.2061 29.2503 16.6663 29.2503H26.2489C26.7091 29.2503 27.0822 28.8773 27.0822 28.4171C27.0822 27.9569 26.7091 27.5838 26.2489 27.5838Z" fill="#00A64D"/>
<path fill-rule="evenodd" clip-rule="evenodd" d="M16.6243 20.9748H26.2069C26.6671 20.9748 27.0401 21.3478 27.0401 21.808C27.0401 22.2682 26.6671 22.6413 26.2069 22.6413H16.6243C16.1641 22.6413 15.791 22.2682 15.791 21.808C15.791 21.3478 16.1641 20.9748 16.6243 20.9748ZM16.6243 14.3086H26.2069C26.6671 14.3086 27.0401 14.6816 27.0401 15.1419C27.0401 15.6021 26.6671 15.9751 26.2069 15.9751H16.6243C16.1641 15.9751 15.791 15.6021 15.791 15.1419C15.791 14.6816 16.1641 14.3086 16.6243 14.3086ZM16.6243 27.6409H26.2069C26.6671 27.6409 27.0401 28.014 27.0401 28.4742C27.0401 28.9344 26.6671 29.3075 26.2069 29.3075H16.6243C16.1641 29.3075 15.791 28.9344 15.791 28.4742C15.791 28.014 16.1641 27.6409 16.6243 27.6409Z" fill="#888888"/>
</g>
<defs>
<clipPath id="clip0_1948_894">
<rect width="35" height="35" fill="white" transform="translate(0 0.5)"/>
</clipPath>
</defs>
</svg>
