<svg width="16" height="20" viewBox="0 0 16 20" fill="none" xmlns="http://www.w3.org/2000/svg">
<path d="M13.625 10.8543V7.87305C13.6237 6.54473 13.1523 5.25974 12.2943 4.24565C11.4364 3.23156 10.2472 2.55381 8.9375 2.33242V1.31055C8.9375 1.06191 8.83873 0.82345 8.66291 0.647634C8.4871 0.471819 8.24864 0.373047 8 0.373047C7.75136 0.373047 7.5129 0.471819 7.33709 0.647634C7.16127 0.82345 7.0625 1.06191 7.0625 1.31055V2.33242C5.75276 2.55381 4.56362 3.23156 3.70567 4.24565C2.84773 5.25974 2.37635 6.54473 2.375 7.87305V10.8543C1.82792 11.0477 1.35406 11.4056 1.01838 11.8789C0.682699 12.3522 0.501631 12.9178 0.5 13.498V15.373C0.5 15.6217 0.598772 15.8601 0.774588 16.036C0.950403 16.2118 1.18886 16.3105 1.4375 16.3105H4.38125C4.59714 17.105 5.06844 17.8063 5.72243 18.3062C6.37643 18.8062 7.17678 19.0771 8 19.0771C8.82322 19.0771 9.62357 18.8062 10.2776 18.3062C10.9316 17.8063 11.4029 17.105 11.6187 16.3105H14.5625C14.8111 16.3105 15.0496 16.2118 15.2254 16.036C15.4012 15.8601 15.5 15.6217 15.5 15.373V13.498C15.4984 12.9178 15.3173 12.3522 14.9816 11.8789C14.6459 11.4056 14.1721 11.0477 13.625 10.8543ZM4.25 7.87305C4.25 6.87849 4.64509 5.92466 5.34835 5.2214C6.05161 4.51814 7.00544 4.12305 8 4.12305C8.99456 4.12305 9.94839 4.51814 10.6517 5.2214C11.3549 5.92466 11.75 6.87849 11.75 7.87305V10.6855H4.25V7.87305ZM8 17.248C7.67279 17.2461 7.35179 17.1585 7.0689 16.994C6.78602 16.8296 6.5511 16.5939 6.3875 16.3105H9.6125C9.4489 16.5939 9.21398 16.8296 8.9311 16.994C8.64821 17.1585 8.32721 17.2461 8 17.248ZM13.625 14.4355H2.375V13.498C2.375 13.2494 2.47377 13.011 2.64959 12.8351C2.8254 12.6593 3.06386 12.5605 3.3125 12.5605H12.6875C12.9361 12.5605 13.1746 12.6593 13.3504 12.8351C13.5262 13.011 13.625 13.2494 13.625 13.498V14.4355Z" fill="#71839B"/>
</svg>
