<svg width="100" height="100" viewBox="0 0 100 100" fill="none" xmlns="http://www.w3.org/2000/svg">
<path d="M72.3353 34.535C72.4452 33.6435 72.5003 32.7461 72.5003 31.8479C72.5003 24.2 66.3004 18 58.6524 18H35.5097C34.0539 18 32.8111 19.0512 32.5696 20.4867L24.0421 71.1711C23.7361 72.9899 25.1381 74.6473 26.9822 74.6473H35.4461C36.9018 74.6473 38.1681 73.5967 38.4094 72.1611L38.4491 71.9255H38.4492L37.2697 78.9362C37.0002 80.5391 38.2358 82 39.8612 82H47.2658C48.5489 82 49.6444 81.0734 49.8572 79.8081L51.9608 67.3056C52.3234 65.1504 54.1893 63.5723 56.3747 63.5723H58.3199C68.8862 63.5723 77.4517 55.0066 77.4517 44.4405C77.4517 40.3519 75.4307 36.7377 72.3353 34.535Z" fill="#002987"/>
<path d="M72.3345 34.5333C71.0102 45.3057 61.829 53.6471 50.6987 53.6471H44.2406C42.783 53.6471 41.5241 54.618 41.1292 55.9907L37.269 78.9343C36.9994 80.5373 38.235 81.9983 39.8604 81.9983H47.265C48.5481 81.9983 49.6436 81.0717 49.8564 79.8064L51.96 67.304C52.3226 65.1487 54.1885 63.5706 56.3739 63.5706H58.3191C68.8854 63.5706 77.4509 55.005 77.4509 44.4388C77.4509 40.3502 75.4299 36.7361 72.3345 34.5333Z" fill="#0085CC"/>
<path d="M44.2421 53.6498H50.7002C61.8306 53.6498 71.0119 45.3084 72.336 34.5362C70.35 33.1229 67.923 32.2889 65.2997 32.2889H48.4435C46.5244 32.2889 44.8857 33.6748 44.5672 35.5673L41.1306 55.9933C41.5255 54.6206 42.7845 53.6498 44.2421 53.6498Z" fill="#00186A"/>
</svg>
