<svg width="40" height="40" viewBox="0 0 40 40" fill="none" xmlns="http://www.w3.org/2000/svg">
<path d="M28.7501 28.7502H11.2501C10.9186 28.7502 10.6006 28.6186 10.3662 28.3841C10.1318 28.1497 10.0001 27.8318 10.0001 27.5002C10.0001 27.1687 10.1318 26.8508 10.3662 26.6164C10.6006 26.3819 10.9186 26.2502 11.2501 26.2502H28.7501C29.0816 26.2502 29.3995 26.3819 29.634 26.6164C29.8684 26.8508 30.0001 27.1687 30.0001 27.5002C30.0001 27.8318 29.8684 28.1497 29.634 28.3841C29.3995 28.6186 29.0816 28.7502 28.7501 28.7502ZM15.4388 19.1734C15.1863 19.1734 14.9307 19.0971 14.7101 18.9378L6.77008 13.2246C6.63317 13.1303 6.51646 13.0095 6.42679 12.8695C6.33713 12.7294 6.2763 12.5729 6.24788 12.4091C6.21946 12.2452 6.22402 12.0774 6.26129 11.9153C6.29855 11.7532 6.36778 11.6003 6.46491 11.4653C6.56204 11.3303 6.68513 11.2161 6.82696 11.1293C6.96879 11.0425 7.12651 10.9848 7.2909 10.9597C7.45528 10.9347 7.62302 10.9426 7.78428 10.9832C7.94555 11.0237 8.09711 11.096 8.23008 11.1959L16.1701 16.909C16.3847 17.0636 16.5448 17.2822 16.6273 17.5335C16.7098 17.7848 16.7104 18.0558 16.6292 18.3075C16.5479 18.5592 16.3888 18.7786 16.175 18.9342C15.9611 19.0898 15.7033 19.1735 15.4388 19.1734ZM24.5613 19.1734C24.2968 19.1735 24.0391 19.0898 23.8252 18.9342C23.6113 18.7786 23.4523 18.5592 23.371 18.3075C23.2897 18.0558 23.2904 17.7848 23.3729 17.5335C23.4554 17.2822 23.6154 17.0636 23.8301 16.909L31.7701 11.1959C32.0394 11.0102 32.3708 10.9375 32.6931 10.9935C33.0154 11.0494 33.303 11.2294 33.4941 11.4949C33.6852 11.7604 33.7645 12.0903 33.7152 12.4137C33.6658 12.737 33.4917 13.0282 33.2301 13.2246L25.2901 18.9378C25.078 19.0911 24.823 19.1735 24.5613 19.1734Z" fill="#333333"/>
<path d="M15.4394 19.174C15.2316 19.1743 15.027 19.1227 14.8442 19.0239C14.6614 18.925 14.5061 18.7822 14.3925 18.6082C14.2789 18.4342 14.2104 18.2346 14.1934 18.0275C14.1764 17.8204 14.2113 17.6123 14.2951 17.4222L18.8551 6.99903C18.9208 6.84857 19.0155 6.71253 19.1338 6.59872C19.2522 6.48491 19.3918 6.39555 19.5447 6.33576C19.6976 6.27596 19.8608 6.24691 20.0249 6.25026C20.1891 6.25361 20.351 6.2893 20.5013 6.35528C20.6518 6.42098 20.7878 6.51571 20.9016 6.63405C21.0154 6.75238 21.1048 6.892 21.1646 7.0449C21.2244 7.19781 21.2534 7.36101 21.2501 7.52516C21.2467 7.68931 21.211 7.85119 21.1451 8.00153L16.5851 18.4247C16.4877 18.6475 16.3274 18.837 16.1239 18.9701C15.9205 19.1032 15.6826 19.1741 15.4394 19.174Z" fill="#333333"/>
<path d="M24.5604 19.1757C24.3172 19.1757 24.0793 19.1049 23.8759 18.9718C23.6724 18.8387 23.5121 18.6491 23.4147 18.4263L18.8547 8.00318C18.7264 7.7003 18.7227 7.35906 18.8443 7.05344C18.9659 6.74782 19.2031 6.50245 19.5045 6.37054C19.8058 6.23863 20.1469 6.23081 20.454 6.34877C20.7611 6.46672 21.0092 6.70096 21.1447 7.00068L25.7047 17.4238C25.7881 17.614 25.8228 17.822 25.8056 18.029C25.7885 18.236 25.72 18.4354 25.6064 18.6093C25.4928 18.7832 25.3377 18.926 25.1551 19.0249C24.9725 19.1238 24.7681 19.1756 24.5604 19.1757ZM11.2485 28.7519C10.6866 28.7519 10.1754 28.3707 10.036 27.8001L6.28599 12.5101C6.24688 12.3506 6.23956 12.185 6.26444 12.0228C6.28932 11.8605 6.34592 11.7047 6.431 11.5644C6.51608 11.424 6.62798 11.3017 6.76031 11.2046C6.89264 11.1074 7.04281 11.0373 7.20224 10.9982C7.52423 10.9192 7.86441 10.9714 8.14794 11.1432C8.43147 11.315 8.63513 11.5924 8.71412 11.9144L12.4641 27.2044C12.5092 27.3886 12.5119 27.5806 12.4718 27.7659C12.4318 27.9512 12.3501 28.125 12.233 28.2741C12.1159 28.4232 11.9664 28.5437 11.7958 28.6265C11.6253 28.7093 11.4381 28.7522 11.2485 28.7519ZM28.751 28.7519C28.5613 28.7522 28.3741 28.7093 28.2035 28.6265C28.0328 28.5436 27.8833 28.4231 27.7662 28.2739C27.649 28.1247 27.5674 27.9509 27.5274 27.7655C27.4874 27.5801 27.4901 27.388 27.5354 27.2038L31.2854 11.9138C31.3644 11.5918 31.568 11.3144 31.8515 11.1426C32.1351 10.9707 32.4753 10.9186 32.7972 10.9976C33.1192 11.0765 33.3967 11.2802 33.5685 11.5637C33.7403 11.8473 33.7925 12.1874 33.7135 12.5094L29.9635 27.7994C29.897 28.0709 29.7414 28.3122 29.5216 28.4849C29.3018 28.6576 29.0305 28.7516 28.751 28.7519ZM28.7497 33.7519H11.2497C10.9182 33.7519 10.6003 33.6202 10.3659 33.3858C10.1314 33.1514 9.99974 32.8335 9.99974 32.5019C9.99974 32.1704 10.1314 31.8525 10.3659 31.618C10.6003 31.3836 10.9182 31.2519 11.2497 31.2519H28.7497C29.0813 31.2519 29.3992 31.3836 29.6336 31.618C29.868 31.8525 29.9997 32.1704 29.9997 32.5019C29.9997 32.8335 29.868 33.1514 29.6336 33.3858C29.3992 33.6202 29.0813 33.7519 28.7497 33.7519Z" fill="#333333"/>
</svg>
