<svg width="32" height="32" viewBox="0 0 32 32" fill="none" xmlns="http://www.w3.org/2000/svg">
<g clip-path="url(#clip0_1694_26514)">
<path d="M19.1909 0H28.8229L20.8156 10.2194H11.1836L19.1909 0Z" fill="#0E6A8E"/>
<path d="M19.1909 0H23.2616L15.2543 10.2194H11.1836L19.1909 0Z" fill="#E52E40"/>
<path d="M22.3042 0H25.7096L17.7023 10.2194H14.2969L22.3042 0Z" fill="#EAEAE4"/>
<path d="M15.9996 31.9993C21.5093 31.9993 25.9758 27.5328 25.9758 22.0231C25.9758 16.5134 21.5093 12.0469 15.9996 12.0469C10.4899 12.0469 6.02344 16.5134 6.02344 22.0231C6.02344 27.5328 10.4899 31.9993 15.9996 31.9993Z" fill="#F9AC30"/>
<path d="M11.1834 13.2847V10.2186H20.8154V13.2847L22.448 14.4113V9.40225C22.448 8.95163 22.083 8.58594 21.6317 8.58594H10.3671C9.91647 8.58594 9.55078 8.95163 9.55078 9.40225V14.4119L11.1834 13.2847Z" fill="#F9AC30"/>
<path d="M15.9997 29.4916C20.1244 29.4916 23.4681 26.1478 23.4681 22.0231C23.4681 17.8984 20.1244 14.5547 15.9997 14.5547C11.875 14.5547 8.53125 17.8984 8.53125 22.0231C8.53125 26.1478 11.875 29.4916 15.9997 29.4916Z" fill="#DD8D19"/>
<path d="M12.8078 0H3.17578L11.1831 10.2194H20.8151L12.8078 0Z" fill="#E52E40"/>
<path d="M12.8071 0H8.73633L16.7437 10.2194H20.8144L12.8071 0Z" fill="#0E6A8E"/>
<path d="M9.69444 0H6.28906L14.2964 10.2194H17.7017L9.69444 0Z" fill="#EAEAE4"/>
<g filter="url(#filter0_d_1694_26514)">
<mask id="path-10-outside-1_1694_26514" maskUnits="userSpaceOnUse" x="13" y="18" width="5" height="8" fill="black">
<rect fill="white" x="13" y="18" width="5" height="8"/>
<path d="M16.767 19.1818V25H15.8864V20.0625H15.8523L14.4602 20.9716V20.1307L15.9119 19.1818H16.767Z"/>
</mask>
<path d="M16.767 19.1818V25H15.8864V20.0625H15.8523L14.4602 20.9716V20.1307L15.9119 19.1818H16.767Z" fill="#F9AC30"/>
<path d="M16.767 19.1818H17.767V18.1818H16.767V19.1818ZM16.767 25V26H17.767V25H16.767ZM15.8864 25H14.8864V26H15.8864V25ZM15.8864 20.0625H16.8864V19.0625H15.8864V20.0625ZM15.8523 20.0625V19.0625H15.5547L15.3055 19.2252L15.8523 20.0625ZM14.4602 20.9716H13.4602V22.819L15.007 21.8089L14.4602 20.9716ZM14.4602 20.1307L13.9131 19.2936L13.4602 19.5896V20.1307H14.4602ZM15.9119 19.1818V18.1818H15.6141L15.3648 18.3448L15.9119 19.1818ZM15.767 19.1818V25H17.767V19.1818H15.767ZM16.767 24H15.8864V26H16.767V24ZM16.8864 25V20.0625H14.8864V25H16.8864ZM15.8864 19.0625H15.8523V21.0625H15.8864V19.0625ZM15.3055 19.2252L13.9134 20.1343L15.007 21.8089L16.3991 20.8998L15.3055 19.2252ZM15.4602 20.9716V20.1307H13.4602V20.9716H15.4602ZM15.0073 20.9677L16.459 20.0189L15.3648 18.3448L13.9131 19.2936L15.0073 20.9677ZM15.9119 20.1818H16.767V18.1818H15.9119V20.1818Z" fill="#F9AC30" mask="url(#path-10-outside-1_1694_26514)"/>
</g>
</g>
<defs>
<filter id="filter0_d_1694_26514" x="10.4604" y="19.1818" width="10.3066" height="13.8182" filterUnits="userSpaceOnUse" color-interpolation-filters="sRGB">
<feFlood flood-opacity="0" result="BackgroundImageFix"/>
<feColorMatrix in="SourceAlpha" type="matrix" values="0 0 0 0 0 0 0 0 0 0 0 0 0 0 0 0 0 0 127 0" result="hardAlpha"/>
<feOffset dy="4"/>
<feGaussianBlur stdDeviation="2"/>
<feComposite in2="hardAlpha" operator="out"/>
<feColorMatrix type="matrix" values="0 0 0 0 0 0 0 0 0 0 0 0 0 0 0 0 0 0 0.25 0"/>
<feBlend mode="normal" in2="BackgroundImageFix" result="effect1_dropShadow_1694_26514"/>
<feBlend mode="normal" in="SourceGraphic" in2="effect1_dropShadow_1694_26514" result="shape"/>
</filter>
<clipPath id="clip0_1694_26514">
<rect width="32" height="32" fill="white"/>
</clipPath>
</defs>
</svg>
