<svg width="31" height="32" viewBox="0 0 31 32" fill="none" xmlns="http://www.w3.org/2000/svg">
<rect width="31" height="32" rx="15.5" fill="#F6F6F6"/>
<path d="M15.3402 21.1392C14.7171 21.1392 14.157 21.0199 13.6598 20.7812C13.166 20.5393 12.7715 20.2079 12.4766 19.7869C12.1816 19.366 12.0241 18.8854 12.0043 18.3452H13.4957C13.5322 18.7827 13.7261 19.1423 14.0774 19.424C14.4287 19.7057 14.8497 19.8466 15.3402 19.8466C15.7313 19.8466 16.0777 19.7571 16.3793 19.5781C16.6842 19.3958 16.9228 19.1456 17.0952 18.8274C17.2708 18.5092 17.3587 18.1463 17.3587 17.7386C17.3587 17.3243 17.2692 16.9548 17.0902 16.63C16.9112 16.3052 16.6643 16.05 16.3494 15.8643C16.0379 15.6787 15.6799 15.5843 15.2756 15.581C14.9673 15.581 14.6574 15.634 14.3459 15.7401C14.0343 15.8461 13.7824 15.9853 13.5902 16.1577L12.1832 15.9489L12.755 10.8182H18.353V12.1357H14.0327L13.7095 14.9844H13.7692C13.968 14.7921 14.2315 14.6314 14.5597 14.5021C14.8911 14.3729 15.2457 14.3082 15.6236 14.3082C16.2434 14.3082 16.7952 14.4557 17.2791 14.7507C17.7663 15.0457 18.1491 15.4484 18.4276 15.9588C18.7093 16.4659 18.8485 17.0492 18.8452 17.7088C18.8485 18.3684 18.6993 18.9567 18.3977 19.4737C18.0994 19.9908 17.6851 20.3984 17.1548 20.6967C16.6278 20.9917 16.023 21.1392 15.3402 21.1392Z" fill="#434656"/>
</svg>
