<svg width="32" height="32" viewBox="0 0 32 32" fill="none" xmlns="http://www.w3.org/2000/svg">
<g clip-path="url(#clip0_1694_26543)">
<path d="M19.1909 0H28.8229L20.8156 10.2194H11.1836L19.1909 0Z" fill="#0E6A8E"/>
<path d="M19.1909 0H23.2616L15.2543 10.2194H11.1836L19.1909 0Z" fill="#E52E40"/>
<path d="M22.3042 0H25.7096L17.7023 10.2194H14.2969L22.3042 0Z" fill="#EAEAE4"/>
<path d="M15.9996 31.9993C21.5093 31.9993 25.9758 27.5328 25.9758 22.0231C25.9758 16.5134 21.5093 12.0469 15.9996 12.0469C10.4899 12.0469 6.02344 16.5134 6.02344 22.0231C6.02344 27.5328 10.4899 31.9993 15.9996 31.9993Z" fill="#8692A6"/>
<path d="M11.1834 13.2847V10.2186H20.8154V13.2847L22.448 14.4112V9.40225C22.448 8.95163 22.083 8.58594 21.6317 8.58594H10.3671C9.91647 8.58594 9.55078 8.95163 9.55078 9.40225V14.4119L11.1834 13.2847Z" fill="#475569"/>
<path d="M15.9997 29.4916C20.1244 29.4916 23.4681 26.1478 23.4681 22.0231C23.4681 17.8984 20.1244 14.5547 15.9997 14.5547C11.875 14.5547 8.53125 17.8984 8.53125 22.0231C8.53125 26.1478 11.875 29.4916 15.9997 29.4916Z" fill="#475569"/>
<path d="M12.8078 0H3.17578L11.1831 10.2194H20.8151L12.8078 0Z" fill="#E52E40"/>
<path d="M12.8071 0H8.73633L16.7437 10.2194H20.8144L12.8071 0Z" fill="#0E6A8E"/>
<path d="M9.69444 0H6.28906L14.2964 10.2194H17.7018L9.69444 0Z" fill="#EAEAE4"/>
<g filter="url(#filter0_d_1694_26543)">
<mask id="path-10-outside-1_1694_26543" maskUnits="userSpaceOnUse" x="12" y="16" width="8" height="10" fill="black">
<rect fill="white" x="12" y="16" width="8" height="10"/>
<path d="M13.6332 25V24.2045L16.0941 21.6548C16.3569 21.3778 16.5735 21.1352 16.744 20.9268C16.9168 20.7161 17.0458 20.5161 17.131 20.3267C17.2163 20.1373 17.2589 19.9361 17.2589 19.723C17.2589 19.4815 17.2021 19.2732 17.0884 19.098C16.9748 18.9205 16.8197 18.7843 16.6232 18.6896C16.4267 18.5926 16.2054 18.544 15.9592 18.544C15.6987 18.544 15.4715 18.5973 15.2773 18.7038C15.0832 18.8104 14.9341 18.9607 14.8299 19.1548C14.7257 19.349 14.6737 19.5762 14.6737 19.8366H13.6261C13.6261 19.3939 13.7279 19.0069 13.9315 18.6754C14.1351 18.344 14.4144 18.0871 14.7695 17.9048C15.1246 17.7202 15.5283 17.6278 15.9805 17.6278C16.4374 17.6278 16.8398 17.719 17.1879 17.9013C17.5382 18.0812 17.8117 18.3274 18.0082 18.6399C18.2047 18.95 18.3029 19.3004 18.3029 19.6911C18.3029 19.9609 18.252 20.2249 18.1502 20.483C18.0508 20.741 17.8768 21.0286 17.6282 21.3459C17.3796 21.6607 17.034 22.0431 16.5913 22.4929L15.146 24.0057V24.0589H18.4201V25H13.6332Z"/>
</mask>
<path d="M13.6332 25V24.2045L16.0941 21.6548C16.3569 21.3778 16.5735 21.1352 16.744 20.9268C16.9168 20.7161 17.0458 20.5161 17.131 20.3267C17.2163 20.1373 17.2589 19.9361 17.2589 19.723C17.2589 19.4815 17.2021 19.2732 17.0884 19.098C16.9748 18.9205 16.8197 18.7843 16.6232 18.6896C16.4267 18.5926 16.2054 18.544 15.9592 18.544C15.6987 18.544 15.4715 18.5973 15.2773 18.7038C15.0832 18.8104 14.9341 18.9607 14.8299 19.1548C14.7257 19.349 14.6737 19.5762 14.6737 19.8366H13.6261C13.6261 19.3939 13.7279 19.0069 13.9315 18.6754C14.1351 18.344 14.4144 18.0871 14.7695 17.9048C15.1246 17.7202 15.5283 17.6278 15.9805 17.6278C16.4374 17.6278 16.8398 17.719 17.1879 17.9013C17.5382 18.0812 17.8117 18.3274 18.0082 18.6399C18.2047 18.95 18.3029 19.3004 18.3029 19.6911C18.3029 19.9609 18.252 20.2249 18.1502 20.483C18.0508 20.741 17.8768 21.0286 17.6282 21.3459C17.3796 21.6607 17.034 22.0431 16.5913 22.4929L15.146 24.0057V24.0589H18.4201V25H13.6332Z" fill="#8692A6"/>
<path d="M13.6332 25H12.6332V26H13.6332V25ZM13.6332 24.2045L12.9136 23.5101L12.6332 23.8007V24.2045H13.6332ZM16.0941 21.6548L16.8137 22.3493L16.8196 22.3431L16.0941 21.6548ZM16.744 20.9268L15.9708 20.2927L15.97 20.2936L16.744 20.9268ZM17.0884 19.098L16.2461 19.6371L16.2495 19.6422L17.0884 19.098ZM16.6232 18.6896L16.1803 19.5862L16.1891 19.5905L16.6232 18.6896ZM14.6737 19.8366V20.8366H15.6737V19.8366H14.6737ZM13.6261 19.8366H12.6261V20.8366H13.6261V19.8366ZM13.9315 18.6754L14.7835 19.1988L14.7835 19.1988L13.9315 18.6754ZM14.7695 17.9048L15.2262 18.7945L15.2309 18.792L14.7695 17.9048ZM17.1879 17.9013L16.7238 18.7871L16.7311 18.7908L17.1879 17.9013ZM18.0082 18.6399L17.1616 19.1722L17.1634 19.1751L18.0082 18.6399ZM18.1502 20.483L17.22 20.116L17.2171 20.1234L18.1502 20.483ZM17.6282 21.3459L18.4131 21.9655L18.4153 21.9627L17.6282 21.3459ZM16.5913 22.4929L15.8786 21.7914L15.8733 21.7967L15.8682 21.8021L16.5913 22.4929ZM15.146 24.0057L14.4229 23.3149L14.146 23.6048V24.0057H15.146ZM15.146 24.0589H14.146V25.0589H15.146V24.0589ZM18.4201 24.0589H19.4201V23.0589H18.4201V24.0589ZM18.4201 25V26H19.4201V25H18.4201ZM14.6332 25V24.2045H12.6332V25H14.6332ZM14.3527 24.899L16.8136 22.3493L15.3746 20.9604L12.9136 23.5101L14.3527 24.899ZM16.8196 22.3431C17.0929 22.055 17.3271 21.7933 17.5179 21.5601L15.97 20.2936C15.8199 20.477 15.6209 20.7006 15.3686 20.9666L16.8196 22.3431ZM17.5171 21.561C17.7296 21.3021 17.9123 21.0274 18.043 20.7371L16.2191 19.9163C16.1793 20.0048 16.104 20.1302 15.9708 20.2927L17.5171 21.561ZM18.043 20.7371C18.1878 20.4153 18.2589 20.0738 18.2589 19.723H16.2589C16.2589 19.7984 16.2448 19.8594 16.2191 19.9163L18.043 20.7371ZM18.2589 19.723C18.2589 19.3193 18.1618 18.9152 17.9274 18.5538L16.2495 19.6422C16.2482 19.6402 16.2493 19.6408 16.2515 19.6488C16.254 19.6578 16.2589 19.6808 16.2589 19.723H18.2589ZM17.9307 18.559C17.7136 18.2197 17.4147 17.961 17.0574 17.7888L16.1891 19.5905C16.2247 19.6077 16.236 19.6212 16.2462 19.6371L17.9307 18.559ZM17.0661 17.7931C16.7157 17.62 16.3399 17.544 15.9592 17.544V19.544C16.0709 19.544 16.1377 19.5652 16.1803 19.5862L17.0661 17.7931ZM15.9592 17.544C15.5603 17.544 15.1618 17.6265 14.7962 17.8272L15.7584 19.5805C15.7811 19.5681 15.8372 19.544 15.9592 19.544V17.544ZM14.7962 17.8272C14.4334 18.0263 14.1449 18.3165 13.9487 18.682L15.7111 19.6276C15.7233 19.6049 15.733 19.5945 15.7584 19.5805L14.7962 17.8272ZM13.9487 18.682C13.7535 19.0459 13.6737 19.4413 13.6737 19.8366H15.6737C15.6737 19.7112 15.698 19.6521 15.7111 19.6276L13.9487 18.682ZM14.6737 18.8366H13.6261V20.8366H14.6737V18.8366ZM14.6261 19.8366C14.6261 19.5526 14.6895 19.352 14.7835 19.1988L13.0794 18.152C12.7663 18.6618 12.6261 19.2353 12.6261 19.8366H14.6261ZM14.7835 19.1988C14.8887 19.0276 15.0294 18.8955 15.2262 18.7945L14.3129 17.0152C13.7994 17.2788 13.3814 17.6604 13.0794 18.152L14.7835 19.1988ZM15.2309 18.792C15.4259 18.6906 15.6678 18.6278 15.9805 18.6278V16.6278C15.3887 16.6278 14.8234 16.7497 14.3082 17.0176L15.2309 18.792ZM15.9805 18.6278C16.3022 18.6278 16.5407 18.6912 16.7238 18.7871L17.6519 17.0154C17.139 16.7468 16.5726 16.6278 15.9805 16.6278V18.6278ZM16.7311 18.7908C16.9329 18.8945 17.0671 19.0218 17.1616 19.1722L18.8547 18.1076C18.5563 17.633 18.1436 17.2679 17.6447 17.0117L16.7311 18.7908ZM17.1634 19.1751C17.2519 19.3148 17.3029 19.4773 17.3029 19.6911H19.3029C19.3029 19.1236 19.1574 18.5853 18.8529 18.1047L17.1634 19.1751ZM17.3029 19.6911C17.3029 19.8318 17.277 19.9715 17.22 20.116L19.0804 20.8499C19.227 20.4783 19.3029 20.0901 19.3029 19.6911H17.3029ZM17.2171 20.1234C17.1655 20.2572 17.0538 20.4576 16.8411 20.7291L18.4153 21.9627C18.6998 21.5997 18.936 21.2248 19.0833 20.8425L17.2171 20.1234ZM16.8433 20.7262C16.6262 21.0012 16.3084 21.3547 15.8786 21.7914L17.304 23.1944C17.7595 22.7315 18.133 22.3203 18.4131 21.9655L16.8433 20.7262ZM15.8682 21.8021L14.4229 23.3149L15.869 24.6965L17.3143 23.1837L15.8682 21.8021ZM14.146 24.0057V24.0589H16.146V24.0057H14.146ZM15.146 25.0589H18.4201V23.0589H15.146V25.0589ZM17.4201 24.0589V25H19.4201V24.0589H17.4201ZM18.4201 24H13.6332V26H18.4201V24Z" fill="#8692A6" mask="url(#path-10-outside-1_1694_26543)"/>
</g>
</g>
<defs>
<filter id="filter0_d_1694_26543" x="9.62598" y="17.6278" width="12.7939" height="15.3722" filterUnits="userSpaceOnUse" color-interpolation-filters="sRGB">
<feFlood flood-opacity="0" result="BackgroundImageFix"/>
<feColorMatrix in="SourceAlpha" type="matrix" values="0 0 0 0 0 0 0 0 0 0 0 0 0 0 0 0 0 0 127 0" result="hardAlpha"/>
<feOffset dy="4"/>
<feGaussianBlur stdDeviation="2"/>
<feComposite in2="hardAlpha" operator="out"/>
<feColorMatrix type="matrix" values="0 0 0 0 0 0 0 0 0 0 0 0 0 0 0 0 0 0 0.25 0"/>
<feBlend mode="normal" in2="BackgroundImageFix" result="effect1_dropShadow_1694_26543"/>
<feBlend mode="normal" in="SourceGraphic" in2="effect1_dropShadow_1694_26543" result="shape"/>
</filter>
<clipPath id="clip0_1694_26543">
<rect width="32" height="32" fill="white"/>
</clipPath>
</defs>
</svg>
