<svg width="32" height="32" viewBox="0 0 32 32" fill="none" xmlns="http://www.w3.org/2000/svg">
<g clip-path="url(#clip0_1694_26572)">
<path d="M19.1909 0H28.8229L20.8156 10.2194H11.1836L19.1909 0Z" fill="#0E6A8E"/>
<path d="M19.1909 0H23.2616L15.2543 10.2194H11.1836L19.1909 0Z" fill="#E52E40"/>
<path d="M22.3042 0H25.7096L17.7023 10.2194H14.2969L22.3042 0Z" fill="#EAEAE4"/>
<path d="M15.9996 31.9993C21.5093 31.9993 25.9758 27.5328 25.9758 22.0231C25.9758 16.5134 21.5093 12.0469 15.9996 12.0469C10.4899 12.0469 6.02344 16.5134 6.02344 22.0231C6.02344 27.5328 10.4899 31.9993 15.9996 31.9993Z" fill="#D9A797"/>
<path d="M11.1834 13.2847V10.2186H20.8154V13.2847L22.448 14.4112V9.40225C22.448 8.95163 22.083 8.58594 21.6317 8.58594H10.3671C9.91647 8.58594 9.55078 8.95163 9.55078 9.40225V14.4119L11.1834 13.2847Z" fill="#8D736A"/>
<path d="M15.9997 29.4916C20.1244 29.4916 23.4681 26.1478 23.4681 22.0231C23.4681 17.8984 20.1244 14.5547 15.9997 14.5547C11.875 14.5547 8.53125 17.8984 8.53125 22.0231C8.53125 26.1478 11.875 29.4916 15.9997 29.4916Z" fill="#8D736A"/>
<path d="M12.8078 0H3.17578L11.1831 10.2194H20.8151L12.8078 0Z" fill="#E52E40"/>
<path d="M12.8071 0H8.73633L16.7437 10.2194H20.8144L12.8071 0Z" fill="#0E6A8E"/>
<path d="M9.69444 0H6.28906L14.2964 10.2194H17.7018L9.69444 0Z" fill="#EAEAE4"/>
<g filter="url(#filter0_d_1694_26572)">
<mask id="path-10-outside-1_1694_26572" maskUnits="userSpaceOnUse" x="11" y="16" width="9" height="11" fill="black">
<rect fill="white" x="11" y="16" width="9" height="11"/>
<path d="M15.5089 25.0994C15.0212 25.0994 14.5856 25.0154 14.2021 24.8473C13.8209 24.6792 13.5191 24.446 13.2965 24.1477C13.0763 23.8471 12.958 23.4991 12.9414 23.1037H14.0565C14.0707 23.3191 14.1429 23.5062 14.2731 23.6648C14.4057 23.821 14.5785 23.9418 14.7915 24.027C15.0046 24.1122 15.2414 24.1548 15.5018 24.1548C15.7882 24.1548 16.0415 24.1051 16.2617 24.0057C16.4843 23.9062 16.6583 23.7678 16.7837 23.5902C16.9092 23.4103 16.9719 23.2031 16.9719 22.9688C16.9719 22.7249 16.9092 22.5107 16.7837 22.326C16.6606 22.139 16.4795 21.9922 16.2404 21.8857C16.0037 21.7791 15.7172 21.7259 15.381 21.7259H14.7667V20.831H15.381C15.6509 20.831 15.8877 20.7824 16.0913 20.6854C16.2972 20.5883 16.4582 20.4534 16.5742 20.2805C16.6902 20.1054 16.7482 19.9006 16.7482 19.6662C16.7482 19.4413 16.6973 19.246 16.5955 19.0803C16.4961 18.9122 16.354 18.7808 16.1694 18.6861C15.9871 18.5914 15.7717 18.544 15.5231 18.544C15.2863 18.544 15.065 18.5878 14.859 18.6754C14.6554 18.7607 14.4897 18.8838 14.3619 19.0447C14.234 19.2034 14.1654 19.3939 14.1559 19.6165H13.0941C13.1059 19.2235 13.2219 18.8778 13.4421 18.5795C13.6647 18.2812 13.9582 18.0481 14.3228 17.88C14.6874 17.7119 15.0922 17.6278 15.5373 17.6278C16.0037 17.6278 16.4061 17.719 16.7447 17.9013C17.0856 18.0812 17.3484 18.3215 17.533 18.6222C17.7201 18.9228 17.8124 19.2519 17.81 19.6094C17.8124 20.0166 17.6987 20.3622 17.4691 20.6463C17.2418 20.9304 16.9388 21.121 16.56 21.218V21.2749C17.043 21.3482 17.417 21.54 17.6822 21.8501C17.9497 22.1603 18.0823 22.545 18.0799 23.0043C18.0823 23.4044 17.971 23.763 17.7461 24.0803C17.5236 24.3975 17.2193 24.6473 16.8335 24.8295C16.4476 25.0095 16.006 25.0994 15.5089 25.0994Z"/>
</mask>
<path d="M15.5089 25.0994C15.0212 25.0994 14.5856 25.0154 14.2021 24.8473C13.8209 24.6792 13.5191 24.446 13.2965 24.1477C13.0763 23.8471 12.958 23.4991 12.9414 23.1037H14.0565C14.0707 23.3191 14.1429 23.5062 14.2731 23.6648C14.4057 23.821 14.5785 23.9418 14.7915 24.027C15.0046 24.1122 15.2414 24.1548 15.5018 24.1548C15.7882 24.1548 16.0415 24.1051 16.2617 24.0057C16.4843 23.9062 16.6583 23.7678 16.7837 23.5902C16.9092 23.4103 16.9719 23.2031 16.9719 22.9688C16.9719 22.7249 16.9092 22.5107 16.7837 22.326C16.6606 22.139 16.4795 21.9922 16.2404 21.8857C16.0037 21.7791 15.7172 21.7259 15.381 21.7259H14.7667V20.831H15.381C15.6509 20.831 15.8877 20.7824 16.0913 20.6854C16.2972 20.5883 16.4582 20.4534 16.5742 20.2805C16.6902 20.1054 16.7482 19.9006 16.7482 19.6662C16.7482 19.4413 16.6973 19.246 16.5955 19.0803C16.4961 18.9122 16.354 18.7808 16.1694 18.6861C15.9871 18.5914 15.7717 18.544 15.5231 18.544C15.2863 18.544 15.065 18.5878 14.859 18.6754C14.6554 18.7607 14.4897 18.8838 14.3619 19.0447C14.234 19.2034 14.1654 19.3939 14.1559 19.6165H13.0941C13.1059 19.2235 13.2219 18.8778 13.4421 18.5795C13.6647 18.2812 13.9582 18.0481 14.3228 17.88C14.6874 17.7119 15.0922 17.6278 15.5373 17.6278C16.0037 17.6278 16.4061 17.719 16.7447 17.9013C17.0856 18.0812 17.3484 18.3215 17.533 18.6222C17.7201 18.9228 17.8124 19.2519 17.81 19.6094C17.8124 20.0166 17.6987 20.3622 17.4691 20.6463C17.2418 20.9304 16.9388 21.121 16.56 21.218V21.2749C17.043 21.3482 17.417 21.54 17.6822 21.8501C17.9497 22.1603 18.0823 22.545 18.0799 23.0043C18.0823 23.4044 17.971 23.763 17.7461 24.0803C17.5236 24.3975 17.2193 24.6473 16.8335 24.8295C16.4476 25.0095 16.006 25.0994 15.5089 25.0994Z" fill="#D9A797"/>
<path d="M14.2021 24.8473L13.7986 25.7623L13.8006 25.7632L14.2021 24.8473ZM13.2965 24.1477L12.4897 24.7386L12.495 24.7457L13.2965 24.1477ZM12.9414 23.1037V22.1037H11.8986L11.9423 23.1456L12.9414 23.1037ZM14.0565 23.1037L15.0543 23.0379L14.9927 22.1037H14.0565V23.1037ZM14.2731 23.6648L13.5002 24.2993L13.5053 24.3056L13.5106 24.3118L14.2731 23.6648ZM14.7915 24.027L15.1629 23.0985H15.1629L14.7915 24.027ZM16.2617 24.0057L15.8538 23.0927L15.8501 23.0943L16.2617 24.0057ZM16.7837 23.5902L17.6004 24.1673L17.604 24.1622L16.7837 23.5902ZM16.7837 22.326L15.9484 22.8758L15.9525 22.8819L15.9566 22.888L16.7837 22.326ZM16.2404 21.8857L15.83 22.7976L15.8334 22.7991L16.2404 21.8857ZM14.7667 21.7259H13.7667V22.7259H14.7667V21.7259ZM14.7667 20.831V19.831H13.7667V20.831H14.7667ZM16.0913 20.6854L15.665 19.7808L15.6609 19.7827L16.0913 20.6854ZM16.5742 20.2805L17.4045 20.8379L17.408 20.8326L16.5742 20.2805ZM16.5955 19.0803L15.7348 19.5894L15.7391 19.5966L15.7435 19.6037L16.5955 19.0803ZM16.1694 18.6861L15.7084 19.5735L15.7131 19.5759L16.1694 18.6861ZM14.859 18.6754L15.2452 19.5979L15.2504 19.5957L14.859 18.6754ZM14.3619 19.0447L15.1405 19.6723L15.145 19.6666L14.3619 19.0447ZM14.1559 19.6165V20.6165H15.1142L15.155 19.659L14.1559 19.6165ZM13.0941 19.6165L12.0946 19.5864L12.0635 20.6165H13.0941V19.6165ZM13.4421 18.5795L12.6406 17.9816L12.6375 17.9857L13.4421 18.5795ZM14.3228 17.88L14.7415 18.7881L14.7415 18.7881L14.3228 17.88ZM16.7447 17.9013L16.2706 18.7818L16.2779 18.7857L16.7447 17.9013ZM17.533 18.6222L16.6809 19.1455L16.6839 19.1504L17.533 18.6222ZM17.81 19.6094L16.81 19.6028L16.81 19.6152L17.81 19.6094ZM17.4691 20.6463L16.6914 20.0177L16.6882 20.0216L17.4691 20.6463ZM16.56 21.218L16.3118 20.2493L15.56 20.442V21.218H16.56ZM16.56 21.2749H15.56V22.1344L16.4098 22.2635L16.56 21.2749ZM17.6822 21.8501L16.9221 22.5L16.925 22.5033L17.6822 21.8501ZM18.0799 23.0043L17.0799 22.9991L17.0799 23.0102L18.0799 23.0043ZM17.7461 24.0803L16.9303 23.5019L16.9274 23.506L17.7461 24.0803ZM16.8335 24.8295L17.256 25.7359L17.2606 25.7337L16.8335 24.8295ZM15.5089 24.0994C15.1368 24.0994 14.8413 24.0356 14.6035 23.9314L13.8006 25.7632C14.3299 25.9951 14.9055 26.0994 15.5089 26.0994V24.0994ZM14.6056 23.9323C14.363 23.8253 14.2056 23.6939 14.098 23.5498L12.495 24.7457C12.8325 25.1981 13.2788 25.5331 13.7986 25.7623L14.6056 23.9323ZM14.1033 23.5569C14.0076 23.4262 13.9493 23.2721 13.9405 23.0618L11.9423 23.1456C11.9666 23.726 12.1451 24.2679 12.4897 24.7385L14.1033 23.5569ZM12.9414 24.1037H14.0565V22.1037H12.9414V24.1037ZM13.0586 23.1695C13.0858 23.5818 13.2303 23.9705 13.5002 24.2993L15.046 23.0303C15.046 23.0302 15.0473 23.0319 15.0492 23.0351C15.0511 23.0384 15.0529 23.042 15.0542 23.0454C15.0555 23.0487 15.0558 23.0505 15.0557 23.05C15.0556 23.0495 15.0548 23.0456 15.0543 23.0379L13.0586 23.1695ZM13.5106 24.3118C13.7608 24.6066 14.0741 24.8171 14.4202 24.9555L15.1629 23.0985C15.0828 23.0665 15.0506 23.0354 15.0356 23.0178L13.5106 24.3118ZM14.4202 24.9555C14.7662 25.0939 15.1312 25.1548 15.5018 25.1548V23.1548C15.3515 23.1548 15.243 23.1306 15.1629 23.0985L14.4202 24.9555ZM15.5018 25.1548C15.9041 25.1548 16.302 25.0847 16.6733 24.9171L15.8501 23.0943C15.7811 23.1255 15.6723 23.1548 15.5018 23.1548V25.1548ZM16.6697 24.9187C17.0358 24.7551 17.3592 24.5087 17.6004 24.1673L15.9671 23.0131C15.9573 23.0268 15.9327 23.0574 15.8538 23.0927L16.6697 24.9187ZM17.604 24.1622C17.8546 23.8028 17.9719 23.3929 17.9719 22.9688H15.9719C15.9719 22.9958 15.9685 23.0079 15.9678 23.01C15.9674 23.0116 15.9669 23.0133 15.9635 23.0182L17.604 24.1622ZM17.9719 22.9688C17.9719 22.5438 17.8594 22.1297 17.6109 21.764L15.9566 22.888C15.959 22.8916 15.9719 22.906 15.9719 22.9688H17.9719ZM17.619 21.7762C17.3741 21.4041 17.031 21.1431 16.6474 20.9722L15.8334 22.7991C15.928 22.8412 15.9472 22.8739 15.9484 22.8758L17.619 21.7762ZM16.6508 20.9737C16.2529 20.7947 15.8187 20.7259 15.381 20.7259V22.7259C15.6157 22.7259 15.7544 22.7635 15.83 22.7976L16.6508 20.9737ZM15.381 20.7259H14.7667V22.7259H15.381V20.7259ZM15.7667 21.7259V20.831H13.7667V21.7259H15.7667ZM14.7667 21.831H15.381V19.831H14.7667V21.831ZM15.381 21.831C15.7709 21.831 16.1597 21.7606 16.5216 21.588L15.6609 19.7827C15.6156 19.8043 15.5309 19.831 15.381 19.831V21.831ZM16.5176 21.59C16.8713 21.4233 17.1784 21.1748 17.4045 20.8379L15.7439 19.7232C15.738 19.732 15.7232 19.7533 15.665 19.7808L16.5176 21.59ZM17.408 20.8326C17.6447 20.4752 17.7482 20.0734 17.7482 19.6662H15.7482C15.7482 19.7005 15.7441 19.7178 15.7426 19.723C15.7413 19.7275 15.7407 19.728 15.7404 19.7284L17.408 20.8326ZM17.7482 19.6662C17.7482 19.2859 17.6604 18.9033 17.4476 18.5568L15.7435 19.6037C15.7407 19.5992 15.7409 19.5975 15.7424 19.6032C15.7441 19.6098 15.7482 19.6293 15.7482 19.6662H17.7482ZM17.4562 18.5711C17.2545 18.2302 16.9674 17.9715 16.6257 17.7963L15.7131 19.5759C15.7219 19.5804 15.7276 19.5841 15.7308 19.5863C15.734 19.5885 15.7353 19.5897 15.7354 19.5897C15.7354 19.5898 15.735 19.5894 15.7345 19.5888C15.734 19.5881 15.7341 19.5882 15.7348 19.5894L17.4562 18.5711ZM16.6304 17.7987C16.2788 17.616 15.8988 17.544 15.5231 17.544V19.544C15.6446 19.544 15.6954 19.5668 15.7084 19.5735L16.6304 17.7987ZM15.5231 17.544C15.1597 17.544 14.8044 17.612 14.4677 17.7552L15.2504 19.5957C15.3255 19.5637 15.4129 19.544 15.5231 19.544V17.544ZM14.4729 17.753C14.1255 17.8984 13.8191 18.1202 13.5787 18.4229L15.145 19.6666C15.1603 19.6474 15.1853 19.6229 15.2452 19.5979L14.4729 17.753ZM13.5833 18.4172C13.3087 18.7579 13.1745 19.1589 13.1568 19.574L15.155 19.659C15.1554 19.6486 15.1564 19.643 15.1567 19.6414C15.157 19.6398 15.1568 19.6415 15.1553 19.6456C15.1538 19.6497 15.1516 19.6547 15.1486 19.6601C15.1456 19.6655 15.1426 19.6696 15.1405 19.6723L13.5833 18.4172ZM14.1559 18.6165H13.0941V20.6165H14.1559V18.6165ZM14.0937 19.6466C14.0998 19.444 14.1548 19.2978 14.2467 19.1734L12.6375 17.9857C12.289 18.4578 12.1121 19.003 12.0946 19.5864L14.0937 19.6466ZM14.2436 19.1775C14.3587 19.0233 14.5161 18.892 14.7415 18.7881L13.9041 16.9718C13.4003 17.2041 12.9706 17.5392 12.6406 17.9816L14.2436 19.1775ZM14.7415 18.7881C14.9611 18.6868 15.2209 18.6278 15.5373 18.6278V16.6278C14.9635 16.6278 14.4136 16.7369 13.9041 16.9718L14.7415 18.7881ZM15.5373 18.6278C15.8731 18.6278 16.1057 18.693 16.2706 18.7817L17.2188 17.0208C16.7066 16.745 16.1342 16.6278 15.5373 16.6278V18.6278ZM16.2779 18.7857C16.4755 18.8899 16.5986 19.0115 16.6809 19.1455L18.3851 18.0988C18.0981 17.6315 17.6957 17.2725 17.2114 17.0169L16.2779 18.7857ZM16.6839 19.1504C16.7701 19.2889 16.8112 19.4323 16.81 19.6028L18.81 19.616C18.8136 19.0715 18.67 18.5567 18.3821 18.094L16.6839 19.1504ZM16.81 19.6152C16.8112 19.8197 16.7592 19.9338 16.6914 20.0177L18.2468 21.2749C18.6383 20.7906 18.8135 20.2134 18.81 19.6036L16.81 19.6152ZM16.6882 20.0216C16.6069 20.1233 16.4971 20.2018 16.3118 20.2493L16.8082 22.1867C17.3805 22.0401 17.8768 21.7375 18.25 21.271L16.6882 20.0216ZM15.56 21.218V21.2749H17.56V21.218H15.56ZM16.4098 22.2635C16.7044 22.3083 16.8424 22.4068 16.9221 22.5L18.4422 21.2003C17.9916 20.6732 17.3815 20.3882 16.7103 20.2862L16.4098 22.2635ZM16.925 22.5033C17.0153 22.6081 17.0812 22.75 17.0799 22.9991L19.0799 23.0094C19.0833 22.34 18.884 21.7125 18.4394 21.197L16.925 22.5033ZM17.0799 23.0102C17.0811 23.2075 17.0305 23.3606 16.9303 23.5019L18.5619 24.6586C18.9115 24.1655 19.0835 23.6012 19.0799 22.9983L17.0799 23.0102ZM16.9274 23.506C16.8144 23.6671 16.6516 23.8095 16.4063 23.9254L17.2606 25.7337C17.7871 25.485 18.2327 25.1279 18.5648 24.6545L16.9274 23.506ZM16.4109 23.9232C16.1777 24.0319 15.8843 24.0994 15.5089 24.0994V26.0994C16.1277 26.0994 16.7174 25.987 17.256 25.7359L16.4109 23.9232Z" fill="#8D736A" mask="url(#path-10-outside-1_1694_26572)"/>
</g>
</g>
<defs>
<filter id="filter0_d_1694_26572" x="8.94141" y="17.6278" width="13.1421" height="15.4717" filterUnits="userSpaceOnUse" color-interpolation-filters="sRGB">
<feFlood flood-opacity="0" result="BackgroundImageFix"/>
<feColorMatrix in="SourceAlpha" type="matrix" values="0 0 0 0 0 0 0 0 0 0 0 0 0 0 0 0 0 0 127 0" result="hardAlpha"/>
<feOffset dy="4"/>
<feGaussianBlur stdDeviation="2"/>
<feComposite in2="hardAlpha" operator="out"/>
<feColorMatrix type="matrix" values="0 0 0 0 0 0 0 0 0 0 0 0 0 0 0 0 0 0 0.25 0"/>
<feBlend mode="normal" in2="BackgroundImageFix" result="effect1_dropShadow_1694_26572"/>
<feBlend mode="normal" in="SourceGraphic" in2="effect1_dropShadow_1694_26572" result="shape"/>
</filter>
<clipPath id="clip0_1694_26572">
<rect width="32" height="32" fill="white"/>
</clipPath>
</defs>
</svg>
