<svg width="18" height="18" viewBox="0 0 18 18" fill="none" xmlns="http://www.w3.org/2000/svg">
<g clip-path="url(#clip0_1694_26260)">
<path d="M12.8689 13.0972C12.8689 13.2914 12.7115 13.4488 12.5173 13.4488H5.48199C5.28786 13.4488 5.13043 13.2914 5.13043 13.0972C5.13043 12.9031 5.28786 12.7457 5.48199 12.7457H12.5173C12.7115 12.7457 12.8689 12.9031 12.8689 13.0972ZM12.5173 14.8854H5.48199C5.28786 14.8854 5.13043 15.0428 5.13043 15.237C5.13043 15.4311 5.28786 15.5885 5.48199 15.5885H12.5173C12.7114 15.5885 12.8688 15.4311 12.8688 15.237C12.8688 15.0428 12.7115 14.8854 12.5173 14.8854ZM12.5173 10.6059H5.48199C5.28786 10.6059 5.13043 10.7634 5.13043 10.9575C5.13043 11.1516 5.28786 11.3091 5.48199 11.3091H12.5173C12.7114 11.3091 12.8688 11.1516 12.8688 10.9575C12.8688 10.7634 12.7115 10.6059 12.5173 10.6059ZM16.181 3.16406V17.6484C16.181 17.8426 16.0235 18 15.8294 18H2.16992C1.97579 18 1.81836 17.8426 1.81836 17.6484V0.351562C1.81836 0.15743 1.97579 0 2.16992 0H13.0168C13.1101 0 13.1995 0.0370547 13.2654 0.102973L16.0779 2.91547C16.1106 2.94811 16.1365 2.98687 16.1542 3.02952C16.1718 3.07218 16.1809 3.11789 16.181 3.16406ZM13.3684 2.8125H14.9806L13.3684 1.2003V2.8125ZM15.4778 17.2969V3.51562H13.0169C12.8227 3.51562 12.6653 3.3582 12.6653 3.16406V0.703125H2.52148V17.2969H15.4778ZM12.9547 6.12144L11.419 6.12207C11.3459 6.12211 11.2747 6.14491 11.2152 6.18731C11.1556 6.22972 11.1108 6.28962 11.0869 6.35868L10.9196 6.84225L10.4006 4.79268C10.3821 4.71932 10.3403 4.65392 10.2816 4.60618C10.2229 4.55844 10.1504 4.53092 10.0748 4.5277C9.9992 4.52458 9.92463 4.54588 9.8621 4.58843C9.79956 4.63099 9.75239 4.69254 9.72757 4.76399L9.2576 6.12222L8.32047 6.12274C8.24741 6.12279 8.17618 6.14559 8.11667 6.18799C8.05717 6.23038 8.01236 6.29027 7.98846 6.35931L7.82111 6.84292L7.30217 4.79334C7.28359 4.72 7.24185 4.6546 7.18315 4.60686C7.12444 4.55913 7.0519 4.5316 6.97631 4.52837C6.82113 4.52236 6.67994 4.61788 6.62911 4.76469L6.15917 6.12274H5.04458C4.85045 6.12274 4.69302 6.28017 4.69302 6.4743C4.69302 6.66844 4.85045 6.82587 5.04458 6.82587H6.40959C6.48269 6.82587 6.55397 6.80309 6.61352 6.76069C6.67306 6.71829 6.71791 6.65838 6.74182 6.5893L6.90916 6.10569L7.4281 8.15527C7.44671 8.22859 7.48846 8.29395 7.54716 8.34166C7.60586 8.38937 7.67838 8.41687 7.75396 8.42009C7.82953 8.42331 7.90413 8.40208 7.96668 8.35954C8.02923 8.317 8.07639 8.25542 8.10117 8.18395L8.57114 6.82576L9.50826 6.82523C9.58133 6.8252 9.65257 6.80239 9.71208 6.75999C9.77158 6.71758 9.81639 6.65769 9.84028 6.58863L10.0076 6.10509L10.5266 8.15467C10.5451 8.22801 10.5869 8.29341 10.6456 8.34115C10.7043 8.38889 10.7768 8.41641 10.8524 8.41964C10.928 8.42296 11.0027 8.40174 11.0653 8.35915C11.1278 8.31656 11.175 8.25488 11.1996 8.18332L11.6696 6.82513L12.9549 6.8246C13.1491 6.82453 13.3064 6.66707 13.3063 6.4729C13.3063 6.27873 13.1488 6.12144 12.9547 6.12144Z" fill="white" stroke="white" stroke-width="0.5"/>
</g>
<defs>
<clipPath id="clip0_1694_26260">
<rect width="18" height="18" fill="white"/>
</clipPath>
</defs>
</svg>
