<svg width="51" height="52" viewBox="0 0 51 52" fill="none" xmlns="http://www.w3.org/2000/svg">
<g clip-path="url(#clip0_3184_43486)">
<path d="M50.5071 43.1152L28.6456 5.24992C27.2474 2.82815 23.7518 2.82815 22.3536 5.24992L0.492101 43.1152C-0.906097 45.537 0.841626 48.5643 3.63812 48.5643H47.3612C50.1576 48.5643 51.9054 45.537 50.5071 43.1152Z" fill="#E5646E"/>
<path d="M50.5079 43.1157L28.6464 5.25038C28.0912 4.28876 27.2072 3.70964 26.2533 3.51172L4.47162 41.1597C3.63024 42.6171 3.9949 44.5758 5.56243 45.5928C6.10221 45.943 6.74846 46.097 7.39193 46.097H20.8537C21.213 46.097 21.5708 46.2044 21.8483 46.4327C22.842 47.2501 24.1132 47.7422 25.5004 47.7422C26.8875 47.7422 28.1587 47.2502 29.1524 46.4327C29.43 46.2044 29.7877 46.097 30.1471 46.097H50.8043C51.1249 45.1624 51.0711 44.0911 50.5079 43.1157Z" fill="#FF8086"/>
<path d="M44.393 42.3968L26.2126 10.9074C25.8959 10.359 25.1044 10.359 24.7879 10.9074L6.60754 42.3968C6.29088 42.9452 6.68673 43.6307 7.31994 43.6307H20.7857C21.3379 43.6307 21.834 43.921 22.1545 44.3707C22.8993 45.4159 24.119 46.0985 25.5004 46.0985C26.8818 46.0985 28.1015 45.4159 28.8463 44.3707C29.1668 43.921 29.6629 43.6307 30.215 43.6307H43.6807C44.314 43.6307 44.7097 42.9453 44.393 42.3968Z" fill="white"/>
<path d="M25.4677 43.9354C26.8306 43.9354 27.9354 42.8306 27.9354 41.4677C27.9354 40.1048 26.8306 39 25.4677 39C24.1048 39 23 40.1048 23 41.4677C23 42.8306 24.1048 43.9354 25.4677 43.9354Z" fill="#E5646E"/>
<path d="M26.3643 36.2265H24.6348C24.4241 36.2264 24.2215 36.1456 24.0687 36.0006C23.9158 35.8556 23.8244 35.6575 23.8133 35.4471L23.0773 21.4634C23.0525 20.9928 23.4275 20.5977 23.8988 20.5977H27.1002C27.5714 20.5977 27.9464 20.9928 27.9217 21.4634L27.1857 35.4471C27.1746 35.6575 27.0833 35.8556 26.9304 36.0006C26.7776 36.1456 26.575 36.2265 26.3643 36.2265Z" fill="#E5646E"/>
<path d="M26.7843 43.1668C25.4214 43.1668 24.3166 42.062 24.3166 40.6992C24.3166 40.3511 24.3958 40.0159 24.5258 39.7156C23.6503 40.0947 23.0312 40.9696 23.0312 41.9844C23.0312 43.3472 24.1361 44.4521 25.4989 44.4521C26.5137 44.4521 27.3871 43.8357 27.7662 42.9602C27.466 43.0902 27.1324 43.1668 26.7843 43.1668ZM23.8983 20.5977C23.4271 20.5977 23.0522 20.9928 23.077 21.4634L23.813 35.4471C23.824 35.6575 23.9154 35.8556 24.0682 36.0006C24.221 36.1456 24.4237 36.2264 24.6343 36.2265H25.6019L25.0021 20.5977H23.8983Z" fill="#DB4655"/>
</g>
<defs>
<clipPath id="clip0_3184_43486">
<rect width="51" height="51" fill="white" transform="translate(0 0.5)"/>
</clipPath>
</defs>
</svg>
