<svg width="18" height="18" viewBox="0 0 18 18" fill="none" xmlns="http://www.w3.org/2000/svg">
<g clip-path="url(#clip0_1694_26375)">
<path d="M16.207 16.5776C16.1724 16.5776 16.1381 16.5844 16.1061 16.5976C16.0741 16.6109 16.045 16.6303 16.0205 16.6548C15.996 16.6793 15.9766 16.7083 15.9634 16.7403C15.9501 16.7723 15.9433 16.8066 15.9433 16.8412V17.4727H5.91511V17.1049H14.2189C14.2536 17.1049 14.2879 17.0981 14.3199 17.0849C14.3519 17.0716 14.3809 17.0522 14.4054 17.0277C14.4299 17.0032 14.4493 16.9742 14.4626 16.9422C14.4758 16.9102 14.4827 16.8759 14.4827 16.8412V14.0077L15.6467 12.8438C15.6961 12.7944 15.7239 12.7273 15.7239 12.6574C15.7239 12.5875 15.6961 12.5204 15.6467 12.471L14.4827 11.3071V3.01746H15.9433V15.6621C15.9433 15.8077 16.0613 15.9258 16.207 15.9258C16.3527 15.9258 16.4707 15.8077 16.4707 15.6621V2.75379C16.4707 2.71916 16.4639 2.68487 16.4506 2.65288C16.4374 2.62089 16.418 2.59182 16.3935 2.56733C16.369 2.54285 16.3399 2.52343 16.3079 2.51018C16.2759 2.49693 16.2416 2.49011 16.207 2.49012H14.4827V1.85871C14.4827 1.82408 14.4758 1.78979 14.4626 1.7578C14.4493 1.72581 14.4299 1.69674 14.4054 1.67225C14.3809 1.64777 14.3519 1.62835 14.3199 1.6151C14.2879 1.60185 14.2536 1.59503 14.2189 1.59504H13.1831C13.1131 1.59504 13.0461 1.62282 12.9966 1.67227C12.9472 1.72171 12.9194 1.78878 12.9194 1.85871C12.9194 1.92864 12.9472 1.99571 12.9966 2.04516C13.0461 2.0946 13.1131 2.12238 13.1831 2.12238H13.9552V10.7797L12.9106 9.73529L12.055 8.87991L12.055 8.87987L10.5806 7.40573C10.5312 7.35629 10.4641 7.32851 10.3941 7.32851C10.3242 7.32851 10.2571 7.35629 10.2077 7.40573L10.1262 7.48712L9.49117 6.85216C9.99408 6.12773 10.265 5.2689 10.265 4.36837C10.265 3.56453 10.0493 2.79387 9.6453 2.12242H11.926C11.996 2.12242 12.063 2.09464 12.1125 2.04519C12.1619 1.99574 12.1897 1.92868 12.1897 1.85875C12.1897 1.78882 12.1619 1.72175 12.1125 1.6723C12.063 1.62285 11.996 1.59507 11.926 1.59507H9.27204C9.18157 1.48536 9.08589 1.38004 8.98534 1.27948C8.16016 0.454395 7.06297 0 5.89595 0C4.72894 0 3.63179 0.454395 2.80656 1.27948C1.42875 2.65707 1.13105 4.80491 2.08266 6.50261C2.09959 6.53282 2.1223 6.5594 2.14951 6.58084C2.17671 6.60227 2.20787 6.61813 2.24121 6.62752C2.27454 6.63691 2.3094 6.63964 2.34379 6.63556C2.37818 6.63147 2.41143 6.62065 2.44164 6.60371C2.47185 6.58679 2.49843 6.56409 2.51987 6.53689C2.5413 6.50969 2.55716 6.47854 2.56655 6.44521C2.57594 6.41188 2.57867 6.37702 2.57459 6.34264C2.57051 6.30825 2.55969 6.27501 2.54275 6.2448C1.70614 4.75218 1.96798 2.86369 3.1795 1.65234C4.67733 0.154723 7.11454 0.154723 8.61241 1.65234C8.72631 1.76625 8.83217 1.88603 8.92973 2.01101C8.93384 2.01677 8.93806 2.02247 8.94259 2.02788C9.45813 2.69596 9.73758 3.51063 9.73758 4.36834C9.73758 5.22608 9.45813 6.04076 8.94256 6.70883C8.93746 6.71493 8.93264 6.72125 8.92811 6.72778C8.72951 6.98175 8.50018 7.21011 8.24538 7.40763C8.2433 7.40925 8.24116 7.41069 8.23912 7.41238C6.73376 8.57243 4.55854 8.46313 3.17954 7.08434C3.13008 7.03489 3.063 7.00711 2.99307 7.00711C2.92313 7.00711 2.85606 7.03489 2.8066 7.08434C2.7821 7.10881 2.76267 7.13788 2.74942 7.16987C2.73616 7.20185 2.72934 7.23614 2.72934 7.27077C2.72934 7.3054 2.73616 7.33968 2.74942 7.37167C2.76267 7.40366 2.7821 7.43273 2.8066 7.4572C2.98966 7.64032 3.18846 7.80699 3.4007 7.9553V16.8412C3.4007 16.8759 3.40753 16.9102 3.42078 16.9422C3.43403 16.9742 3.45346 17.0032 3.47794 17.0277C3.50243 17.0522 3.5315 17.0716 3.5635 17.0849C3.59549 17.0981 3.62978 17.1049 3.66441 17.1049H5.3877V17.7363C5.3877 17.771 5.39452 17.8052 5.40777 17.8372C5.42103 17.8692 5.44045 17.8983 5.46494 17.9228C5.48943 17.9473 5.5185 17.9667 5.55049 17.9799C5.58249 17.9932 5.61678 18 5.65141 18H16.207C16.2416 18 16.2759 17.9932 16.3079 17.9799C16.3399 17.9667 16.369 17.9473 16.3935 17.9228C16.418 17.8983 16.4374 17.8692 16.4506 17.8372C16.4639 17.8052 16.4707 17.771 16.4707 17.7363V16.8412C16.4707 16.8066 16.4639 16.7723 16.4506 16.7403C16.4374 16.7083 16.418 16.6793 16.3935 16.6548C16.369 16.6303 16.3399 16.6109 16.3079 16.5976C16.2759 16.5844 16.2416 16.5776 16.207 16.5776ZM15.0873 12.6574L14.1864 13.5582L11.8232 11.1954L12.7241 10.2946L15.0873 12.6574ZM12.3511 9.92173L11.4502 10.8225L10.9676 10.34L11.8685 9.43921L12.3511 9.92173ZM10.3941 7.96504L11.4956 9.06634L10.5947 9.96711L9.49321 8.86581L10.3941 7.96504ZM8.98534 7.45724C9.04617 7.3963 9.10521 7.3336 9.16239 7.26922L9.75326 7.86002L9.38816 8.22505L8.79729 7.63428C8.86168 7.5771 8.92439 7.51806 8.98534 7.45724ZM3.92812 16.5776V8.27093C4.53084 8.57552 5.20102 8.73672 5.89595 8.73672C6.79666 8.73672 7.65559 8.4658 8.38013 7.96296L9.01519 8.59795L8.93373 8.67937C8.90924 8.70385 8.88981 8.73291 8.87655 8.7649C8.8633 8.79689 8.85647 8.83118 8.85647 8.86581C8.85647 8.90044 8.8633 8.93472 8.87655 8.96671C8.88981 8.9987 8.90924 9.02777 8.93373 9.05224L13.9517 14.0694L13.9516 14.0693L13.9552 14.0729V16.5776H3.92812Z" fill="white"/>
<path d="M13.6255 13.7432L13.6247 13.7424L13.4893 13.6071L13.374 13.4918L13.0884 13.2062L13.026 13.1439M13.6914 13.8091L13.6255 13.7432M13.9516 14.0693L13.8971 14.0148L13.7845 13.9023L13.6914 13.8092M13.9516 14.0693L13.9517 14.0694L8.93373 9.05224C8.90924 9.02777 8.88981 8.9987 8.87655 8.96671C8.8633 8.93472 8.85647 8.90044 8.85647 8.86581C8.85647 8.83118 8.8633 8.79689 8.87655 8.7649C8.88981 8.73292 8.90924 8.70385 8.93373 8.67938L9.01519 8.59795L8.38013 7.96296C7.65559 8.4658 6.79666 8.73671 5.89595 8.73671C5.20102 8.73671 4.53084 8.57552 3.92812 8.27093V16.5776H13.9552V14.0729L13.9516 14.0693ZM11.5934 11.7115L11.5275 11.6456L11.4344 11.5525L11.3218 11.4399L11.2673 11.3855L11.2637 11.3819M13.026 13.1439L12.5484 12.6663M11.5934 11.7115L11.5943 11.7124L11.7147 11.8327L11.845 11.963L12.1305 12.2485L12.1929 12.3109M12.5484 12.6663L12.1929 12.3109M16.207 16.5776C16.1724 16.5776 16.1381 16.5844 16.1061 16.5976C16.0741 16.6109 16.045 16.6303 16.0205 16.6548C15.996 16.6793 15.9766 16.7083 15.9634 16.7403C15.9501 16.7723 15.9433 16.8066 15.9433 16.8413V17.4727H5.91511V17.1049H14.2189C14.2536 17.1049 14.2879 17.0981 14.3199 17.0849C14.3519 17.0716 14.3809 17.0522 14.4054 17.0277C14.4299 17.0032 14.4493 16.9742 14.4626 16.9422C14.4758 16.9102 14.4827 16.8759 14.4827 16.8413V14.0077L15.6467 12.8438C15.6961 12.7944 15.7239 12.7273 15.7239 12.6574C15.7239 12.5875 15.6961 12.5204 15.6467 12.471L14.4827 11.3071V3.01746H15.9433V15.6621C15.9433 15.8077 16.0613 15.9258 16.207 15.9258C16.3527 15.9258 16.4707 15.8077 16.4707 15.6621V2.75379C16.4707 2.71916 16.4639 2.68487 16.4506 2.65288C16.4374 2.62089 16.418 2.59182 16.3935 2.56733C16.369 2.54285 16.3399 2.52343 16.3079 2.51018C16.2759 2.49693 16.2416 2.49011 16.207 2.49012H14.4827V1.85871C14.4827 1.82408 14.4758 1.78979 14.4626 1.7578C14.4493 1.72581 14.4299 1.69674 14.4054 1.67225C14.3809 1.64777 14.3519 1.62835 14.3199 1.6151C14.2879 1.60185 14.2536 1.59503 14.2189 1.59504H13.1831C13.1131 1.59504 13.0461 1.62282 12.9966 1.67227C12.9472 1.72171 12.9194 1.78878 12.9194 1.85871C12.9194 1.92864 12.9472 1.99571 12.9966 2.04516C13.0461 2.0946 13.1131 2.12238 13.1831 2.12238H13.9552V10.7797L12.9106 9.73529L12.055 8.87991L12.055 8.87987L10.5806 7.40573C10.5312 7.35629 10.4641 7.32851 10.3941 7.32851C10.3242 7.32851 10.2571 7.35629 10.2077 7.40573L10.1262 7.48712L9.49117 6.85216C9.99408 6.12773 10.265 5.2689 10.265 4.36837C10.265 3.56453 10.0493 2.79387 9.6453 2.12242H11.926C11.996 2.12242 12.063 2.09464 12.1125 2.04519C12.1619 1.99574 12.1897 1.92868 12.1897 1.85875C12.1897 1.78882 12.1619 1.72175 12.1125 1.6723C12.063 1.62285 11.996 1.59507 11.926 1.59507H9.27204C9.18157 1.48536 9.08589 1.38004 8.98534 1.27948C8.16016 0.454395 7.06297 0 5.89595 0C4.72894 0 3.63179 0.454395 2.80656 1.27948C1.42875 2.65707 1.13105 4.80491 2.08266 6.50261C2.09959 6.53282 2.1223 6.5594 2.14951 6.58084C2.17671 6.60227 2.20787 6.61814 2.24121 6.62752C2.27454 6.63691 2.3094 6.63964 2.34379 6.63556C2.37818 6.63147 2.41143 6.62065 2.44164 6.60372C2.47185 6.58679 2.49843 6.56409 2.51987 6.53689C2.5413 6.50969 2.55716 6.47854 2.56655 6.44521C2.57594 6.41188 2.57867 6.37702 2.57459 6.34264C2.57051 6.30825 2.55969 6.27501 2.54275 6.2448C1.70614 4.75218 1.96798 2.86369 3.1795 1.65234C4.67733 0.154723 7.11454 0.154723 8.61241 1.65234C8.72631 1.76625 8.83217 1.88603 8.92973 2.01101C8.93384 2.01677 8.93806 2.02247 8.94259 2.02788C9.45813 2.69596 9.73758 3.51063 9.73758 4.36834C9.73758 5.22608 9.45812 6.04076 8.94256 6.70883C8.93746 6.71493 8.93264 6.72125 8.92811 6.72778C8.72951 6.98175 8.50018 7.21011 8.24538 7.40763C8.2433 7.40925 8.24116 7.41069 8.23912 7.41238C6.73376 8.57243 4.55854 8.46313 3.17954 7.08434C3.13008 7.03489 3.063 7.00711 2.99307 7.00711C2.92313 7.00711 2.85606 7.03489 2.8066 7.08434C2.7821 7.10881 2.76267 7.13788 2.74942 7.16986C2.73616 7.20185 2.72934 7.23614 2.72934 7.27077C2.72934 7.3054 2.73616 7.33968 2.74942 7.37167C2.76267 7.40366 2.7821 7.43273 2.8066 7.4572C2.98966 7.64032 3.18846 7.80699 3.4007 7.9553V16.8413C3.4007 16.8759 3.40753 16.9102 3.42078 16.9422C3.43403 16.9742 3.45346 17.0032 3.47794 17.0277C3.50243 17.0522 3.5315 17.0716 3.5635 17.0849C3.59549 17.0981 3.62978 17.1049 3.66441 17.1049H5.3877V17.7363C5.3877 17.771 5.39452 17.8052 5.40777 17.8372C5.42103 17.8692 5.44045 17.8983 5.46494 17.9228C5.48943 17.9473 5.5185 17.9667 5.55049 17.9799C5.58249 17.9932 5.61678 18 5.65141 18H16.207C16.2416 18 16.2759 17.9932 16.3079 17.9799C16.3399 17.9667 16.369 17.9473 16.3935 17.9228C16.418 17.8983 16.4374 17.8692 16.4506 17.8372C16.4639 17.8052 16.4707 17.771 16.4707 17.7363V16.8413C16.4707 16.8066 16.4639 16.7723 16.4506 16.7403C16.4374 16.7083 16.418 16.6793 16.3935 16.6548C16.369 16.6303 16.3399 16.6109 16.3079 16.5976C16.2759 16.5844 16.2416 16.5776 16.207 16.5776ZM15.0873 12.6574L14.1864 13.5582L11.8232 11.1954L12.7241 10.2946L15.0873 12.6574ZM12.3511 9.92173L11.4502 10.8225L10.9676 10.34L11.8685 9.43921L12.3511 9.92173ZM10.3941 7.96504L11.4956 9.06634L10.5947 9.96711L9.49321 8.86581L10.3941 7.96504ZM8.98534 7.45724C9.04617 7.3963 9.10521 7.3336 9.16239 7.26922L9.75326 7.86002L9.38816 8.22505L8.79729 7.63429C8.86168 7.5771 8.92439 7.51806 8.98534 7.45724Z" stroke="white" stroke-width="0.3"/>
<path d="M9.04952 10.8719H5.09609C5.02616 10.8719 4.9591 10.8997 4.90965 10.9491C4.8602 10.9986 4.83242 11.0656 4.83242 11.1356C4.83242 11.2055 4.8602 11.2726 4.90965 11.322C4.9591 11.3715 5.02616 11.3992 5.09609 11.3992H9.04952C9.11945 11.3992 9.18651 11.3715 9.23596 11.322C9.28541 11.2726 9.31319 11.2055 9.31319 11.1356C9.31319 11.0656 9.28541 10.9986 9.23596 10.9491C9.18651 10.8997 9.11945 10.8719 9.04952 10.8719ZM9.04952 12.2869H5.09609C5.02616 12.2869 4.9591 12.3147 4.90965 12.3641C4.8602 12.4136 4.83242 12.4806 4.83242 12.5506C4.83242 12.6205 4.8602 12.6876 4.90965 12.737C4.9591 12.7865 5.02616 12.8142 5.09609 12.8142H9.04952C9.11945 12.8142 9.18651 12.7865 9.23596 12.737C9.28541 12.6876 9.31319 12.6205 9.31319 12.5506C9.31319 12.4806 9.28541 12.4136 9.23596 12.3641C9.18651 12.3147 9.11945 12.2869 9.04952 12.2869ZM9.04952 13.7019H5.09609C5.02616 13.7019 4.9591 13.7297 4.90965 13.7791C4.8602 13.8286 4.83242 13.8956 4.83242 13.9656C4.83242 14.0355 4.8602 14.1026 4.90965 14.152C4.9591 14.2015 5.02616 14.2292 5.09609 14.2292H9.04952C9.11945 14.2292 9.18651 14.2015 9.23596 14.152C9.28541 14.1026 9.31319 14.0355 9.31319 13.9656C9.31319 13.8956 9.28541 13.8286 9.23596 13.7791C9.18651 13.7297 9.11945 13.7019 9.04952 13.7019ZM9.04952 15.1169H5.09609C5.02616 15.1169 4.9591 15.1447 4.90965 15.1942C4.8602 15.2436 4.83242 15.3107 4.83242 15.3806C4.83242 15.4505 4.8602 15.5176 4.90965 15.5671C4.9591 15.6165 5.02616 15.6443 5.09609 15.6443H9.04952C9.11945 15.6443 9.18651 15.6165 9.23596 15.5671C9.28541 15.5176 9.31319 15.4505 9.31319 15.3806C9.31319 15.3107 9.28541 15.2436 9.23596 15.1942C9.18651 15.1447 9.11945 15.1169 9.04952 15.1169ZM12.8194 2.94504H11.4051C11.3705 2.94504 11.3362 2.95186 11.3042 2.9651C11.2722 2.97835 11.2431 2.99777 11.2187 3.02226C11.1942 3.04674 11.1747 3.07581 11.1615 3.1078C11.1482 3.1398 11.1414 3.17409 11.1414 3.20871V5.32143C11.1414 5.35606 11.1482 5.39035 11.1615 5.42234C11.1747 5.45433 11.1942 5.4834 11.2187 5.50789C11.2431 5.53237 11.2722 5.55179 11.3042 5.56504C11.3362 5.57829 11.3705 5.58511 11.4051 5.5851H12.8194C12.8541 5.58511 12.8883 5.57829 12.9203 5.56504C12.9523 5.55179 12.9814 5.53237 13.0059 5.50789C13.0304 5.4834 13.0498 5.45433 13.0631 5.42234C13.0763 5.39035 13.0831 5.35606 13.0831 5.32143V3.20871C13.0831 3.17409 13.0763 3.1398 13.0631 3.1078C13.0498 3.07581 13.0304 3.04674 13.0059 3.02226C12.9814 2.99777 12.9523 2.97835 12.9203 2.9651C12.8883 2.95186 12.8541 2.94504 12.8194 2.94504ZM12.5557 5.05776H11.6688V3.47239H12.5557V5.05776ZM12.8194 6.01612H11.4051C11.3352 6.01612 11.2681 6.0439 11.2187 6.09335C11.1692 6.14279 11.1415 6.20986 11.1415 6.27979C11.1415 6.34972 11.1692 6.41679 11.2187 6.46623C11.2681 6.51568 11.3352 6.54346 11.4051 6.54346H12.8194C12.8894 6.54346 12.9564 6.51568 13.0059 6.46623C13.0553 6.41679 13.0831 6.34972 13.0831 6.27979C13.0831 6.20986 13.0553 6.14279 13.0059 6.09335C12.9564 6.0439 12.8894 6.01612 12.8194 6.01612ZM12.8194 15.1169H11.4051C11.3352 15.1169 11.2681 15.1447 11.2187 15.1942C11.1692 15.2436 11.1415 15.3107 11.1415 15.3806C11.1415 15.4505 11.1692 15.5176 11.2187 15.5671C11.2681 15.6165 11.3352 15.6443 11.4051 15.6443H12.8194C12.8894 15.6443 12.9564 15.6165 13.0059 15.5671C13.0553 15.5176 13.0831 15.4505 13.0831 15.3806C13.0831 15.3107 13.0553 15.2436 13.0059 15.1942C12.9564 15.1447 12.8894 15.1169 12.8194 15.1169ZM12.8194 13.6527H11.4051C11.3352 13.6527 11.2681 13.6804 11.2187 13.7299C11.1692 13.7793 11.1415 13.8464 11.1415 13.9163C11.1415 13.9863 11.1692 14.0533 11.2187 14.1028C11.2681 14.1522 11.3352 14.18 11.4051 14.18H12.8194C12.8894 14.18 12.9564 14.1522 13.0059 14.1028C13.0553 14.0533 13.0831 13.9863 13.0831 13.9163C13.0831 13.8464 13.0553 13.7793 13.0059 13.7299C12.9564 13.6804 12.8894 13.6527 12.8194 13.6527ZM8.28705 1.97737C6.96809 0.658586 4.82191 0.658586 3.50292 1.97737C2.18392 3.29615 2.18392 5.44198 3.50292 6.76076C4.16241 7.42019 5.0287 7.74985 5.89498 7.74985C6.76127 7.74985 7.62755 7.42015 8.28705 6.76076C9.60601 5.44198 9.60601 3.29618 8.28705 1.97737ZM7.91411 6.38793C6.80078 7.50105 4.98922 7.50108 3.87585 6.38793C2.76253 5.27474 2.76253 3.46349 3.87585 2.3503C4.43262 1.79368 5.16366 1.51541 5.89498 1.51541C6.62613 1.51541 7.35752 1.79378 7.91411 2.3503C9.02744 3.46349 9.02744 5.27474 7.91411 6.38793Z" fill="white" stroke="white" stroke-width="0.3"/>
<path d="M5.89539 2.03906C5.27354 2.03906 4.6889 2.28118 4.24923 2.72081C3.78078 3.18923 3.53398 3.83832 3.57223 4.50165C3.5766 4.57121 3.60834 4.63621 3.6605 4.68244C3.71265 4.72867 3.78099 4.75237 3.85057 4.74836C3.92015 4.74436 3.98531 4.71297 4.03182 4.66106C4.07833 4.60916 4.1024 4.54095 4.09876 4.47135C4.0692 3.958 4.25995 3.45589 4.62217 3.09371C4.96224 2.75368 5.41442 2.56641 5.89539 2.56641C5.93001 2.56641 5.9643 2.55959 5.99629 2.54634C6.02828 2.53308 6.05735 2.51366 6.08183 2.48918C6.10632 2.46469 6.12574 2.43563 6.13899 2.40364C6.15224 2.37165 6.15906 2.33736 6.15906 2.30273C6.15906 2.26811 6.15224 2.23382 6.13899 2.20183C6.12574 2.16984 6.10632 2.14077 6.08183 2.11629C6.05735 2.09181 6.02828 2.07238 5.99629 2.05913C5.9643 2.04588 5.93001 2.03906 5.89539 2.03906Z" fill="white" stroke="white" stroke-width="0.3"/>
</g>
<defs>
<clipPath id="clip0_1694_26375">
<rect width="18" height="18" fill="white"/>
</clipPath>
</defs>
</svg>
