<svg width="16" height="16" viewBox="0 0 16 16" fill="none" xmlns="http://www.w3.org/2000/svg">
<path d="M13.7744 8.13892C13.652 7.9996 13.5845 7.82051 13.5845 7.63507C13.5845 7.44963 13.652 7.27053 13.7744 7.13122L14.7516 6.03192C14.8593 5.91182 14.9261 5.76069 14.9426 5.60022C14.959 5.43976 14.9242 5.2782 14.8432 5.13874L13.3164 2.49737C13.2362 2.35806 13.114 2.24764 12.9673 2.18184C12.8206 2.11604 12.6569 2.09823 12.4995 2.13093L11.0643 2.42103C10.8817 2.45876 10.6916 2.42835 10.5299 2.33552C10.3681 2.2427 10.246 2.09389 10.1864 1.91718L9.72076 0.520152C9.66954 0.368524 9.57197 0.236827 9.44183 0.143674C9.31169 0.0505212 9.15557 0.000625072 8.99552 0.0010382H5.94191C5.77544 -0.00765089 5.6107 0.0383887 5.47285 0.132125C5.335 0.225862 5.23162 0.362142 5.17851 0.520152L4.751 1.91718C4.69146 2.09389 4.56929 2.2427 4.40756 2.33552C4.24582 2.42835 4.05571 2.45876 3.87309 2.42103L2.39972 2.13093C2.25051 2.10985 2.0984 2.13339 1.96256 2.1986C1.82671 2.26381 1.71319 2.36776 1.63632 2.49737L0.109511 5.13874C0.0264222 5.27665 -0.0109372 5.4373 0.00277386 5.59772C0.0164849 5.75814 0.0805644 5.91011 0.185851 6.03192L1.15537 7.13122C1.27776 7.27053 1.34526 7.44963 1.34526 7.63507C1.34526 7.82051 1.27776 7.9996 1.15537 8.13892L0.185851 9.23822C0.0805644 9.36002 0.0164849 9.512 0.00277386 9.67242C-0.0109372 9.83284 0.0264222 9.99349 0.109511 10.1314L1.63632 12.7728C1.71655 12.9121 1.83871 13.0225 1.98538 13.0883C2.13206 13.1541 2.29576 13.1719 2.45316 13.1392L3.88836 12.8491C4.07098 12.8114 4.26109 12.8418 4.42282 12.9346C4.58456 13.0274 4.70673 13.1762 4.76627 13.353L5.23195 14.75C5.28506 14.908 5.38844 15.0443 5.52629 15.138C5.66413 15.2317 5.82888 15.2778 5.99535 15.2691H9.04896C9.209 15.2695 9.36513 15.2196 9.49527 15.1265C9.62541 15.0333 9.72298 14.9016 9.77419 14.75L10.2399 13.353C10.2994 13.1762 10.4216 13.0274 10.5833 12.9346C10.745 12.8418 10.9352 12.8114 11.1178 12.8491L12.553 13.1392C12.7104 13.1719 12.8741 13.1541 13.0208 13.0883C13.1674 13.0225 13.2896 12.9121 13.3698 12.7728L14.8966 10.1314C14.9777 9.99193 15.0125 9.83038 14.996 9.66991C14.9796 9.50945 14.9127 9.35832 14.805 9.23822L13.7744 8.13892ZM12.637 9.16187L13.2477 9.84894L12.2705 11.5437L11.3697 11.3605C10.8199 11.2481 10.2479 11.3415 9.76243 11.6229C9.27693 11.9044 8.91166 12.3543 8.73597 12.8873L8.44587 13.7423H6.49156L6.21674 12.872C6.04104 12.339 5.67577 11.8891 5.19027 11.6077C4.70476 11.3262 4.13281 11.2328 3.58299 11.3452L2.68218 11.5284L1.68976 9.8413L2.30048 9.15424C2.67604 8.73435 2.88367 8.19077 2.88367 7.62743C2.88367 7.06409 2.67604 6.52052 2.30048 6.10063L1.68976 5.41357L2.66691 3.73408L3.56773 3.9173C4.11755 4.02969 4.68949 3.93629 5.175 3.65484C5.66051 3.37338 6.02577 2.92347 6.20147 2.39049L6.49156 1.52784H8.44587L8.73597 2.39812C8.91166 2.9311 9.27693 3.38102 9.76243 3.66247C10.2479 3.94392 10.8199 4.03732 11.3697 3.92493L12.2705 3.74171L13.2477 5.43647L12.637 6.12353C12.2656 6.54246 12.0606 7.08289 12.0606 7.6427C12.0606 8.20252 12.2656 8.74295 12.637 9.16187ZM7.46872 4.58146C6.86477 4.58146 6.27438 4.76055 5.77222 5.09608C5.27006 5.43162 4.87867 5.90853 4.64755 6.4665C4.41643 7.02448 4.35595 7.63846 4.47378 8.2308C4.5916 8.82314 4.88243 9.36724 5.30949 9.7943C5.73654 10.2214 6.28064 10.5122 6.87299 10.63C7.46533 10.7478 8.07931 10.6874 8.63728 10.4562C9.19526 10.2251 9.67217 9.83373 10.0077 9.33156C10.3432 8.8294 10.5223 8.23902 10.5223 7.63507C10.5223 6.8252 10.2006 6.0485 9.62795 5.47584C9.05528 4.90318 8.27858 4.58146 7.46872 4.58146ZM7.46872 9.16187C7.16674 9.16187 6.87155 9.07233 6.62047 8.90456C6.36939 8.73679 6.17369 8.49834 6.05813 8.21935C5.94257 7.94036 5.91234 7.63338 5.97125 7.3372C6.03016 7.04103 6.17557 6.76898 6.3891 6.55545C6.60263 6.34193 6.87468 6.19651 7.17085 6.1376C7.46702 6.07869 7.77401 6.10892 8.053 6.22448C8.33199 6.34004 8.57044 6.53574 8.73821 6.78682C8.90598 7.0379 8.99552 7.3331 8.99552 7.63507C8.99552 8.04 8.83466 8.42835 8.54833 8.71468C8.262 9.00101 7.87365 9.16187 7.46872 9.16187Z" fill="#71839B"/>
</svg>
