<svg width="16" height="16" viewBox="0 0 16 16" fill="none" xmlns="http://www.w3.org/2000/svg">
<mask id="mask0_2287_1461" style="mask-type:luminance" maskUnits="userSpaceOnUse" x="1" y="0" width="15" height="15">
<path d="M2 1.33333H14.6667V14H2V1.33333Z" fill="white" stroke="white" stroke-width="1.3"/>
</mask>
<g mask="url(#mask0_2287_1461)">
<path d="M8.33332 5.72064C7.25848 5.72064 6.38713 6.59197 6.38713 7.66683C6.38713 8.74167 7.25848 9.61299 8.33332 9.61299C9.40815 9.61299 10.2795 8.74167 10.2795 7.66683C10.2795 6.59197 9.40815 5.72064 8.33332 5.72064ZM13.7959 6.27802L13.2689 6.71181C12.6679 7.20662 12.6679 8.12701 13.2689 8.62183L13.7959 9.05561C13.9826 9.20934 14.0308 9.47554 13.9099 9.68501L12.8694 11.4872C12.7485 11.6966 12.4938 11.788 12.2673 11.7031L11.6282 11.4637C10.8991 11.1906 10.102 11.6507 9.97405 12.4187L9.86185 13.0919C9.8221 13.3305 9.61567 13.5054 9.37381 13.5054H7.29282C7.05096 13.5054 6.84454 13.3305 6.80478 13.0919L6.69256 12.4187C6.56458 11.6507 5.7675 11.1906 5.03845 11.4637L4.39933 11.7031C4.17281 11.788 3.91817 11.6966 3.79721 11.4872L2.75674 9.68501C2.63582 9.47554 2.68403 9.20934 2.87077 9.05561L3.39772 8.62183C3.99877 8.12701 3.99877 7.20662 3.39772 6.71181L2.87077 6.27802C2.68403 6.12429 2.63582 5.85809 2.75674 5.64862L3.79721 3.84647C3.91817 3.637 4.17281 3.54566 4.39933 3.63052L5.03845 3.86995C5.7675 4.14307 6.56458 3.68289 6.69256 2.91495L6.80478 2.24171C6.84454 2.00315 7.05096 1.82829 7.29282 1.82829H9.37381C9.61567 1.82829 9.8221 2.00315 9.86185 2.24171L9.97405 2.91495C10.102 3.68289 10.8991 4.14307 11.6282 3.86995L12.2673 3.63052C12.4938 3.54566 12.7485 3.637 12.8694 3.84647L13.9099 5.64862C14.0308 5.85809 13.9826 6.12429 13.7959 6.27802Z" stroke="#666666" stroke-width="1.3" stroke-miterlimit="10" stroke-linecap="round" stroke-linejoin="round"/>
</g>
</svg>
