<svg width="16" height="18" viewBox="0 0 16 18" fill="none" xmlns="http://www.w3.org/2000/svg">
<g clip-path="url(#clip0_1948_354)">
<path d="M8.44436 8.99859L6.71896 10.7165C6.64865 10.7862 6.59284 10.8692 6.55475 10.9606C6.51667 11.052 6.49706 11.1501 6.49706 11.2491C6.49706 11.3482 6.51667 11.4462 6.55475 11.5376C6.59284 11.629 6.64865 11.712 6.71896 11.7817C6.7887 11.8521 6.87167 11.9079 6.96308 11.946C7.0545 11.984 7.15255 12.0036 7.25158 12.0036C7.35062 12.0036 7.44867 11.984 7.54008 11.946C7.6315 11.9079 7.71447 11.8521 7.78421 11.7817L10.7849 8.78104C10.8532 8.7097 10.9067 8.62557 10.9425 8.53348C11.0175 8.35085 11.0175 8.14599 10.9425 7.96335C10.9067 7.87127 10.8532 7.78714 10.7849 7.71579L7.78421 4.71509C7.71426 4.64514 7.63123 4.58966 7.53984 4.55181C7.44845 4.51395 7.3505 4.49447 7.25158 4.49447C7.15267 4.49447 7.05472 4.51395 6.96333 4.55181C6.87194 4.58966 6.78891 4.64514 6.71896 4.71509C6.64901 4.78503 6.59353 4.86807 6.55568 4.95946C6.51782 5.05085 6.49834 5.1488 6.49834 5.24771C6.49834 5.34663 6.51782 5.44458 6.55568 5.53597C6.59353 5.62736 6.64901 5.71039 6.71896 5.78034L8.44436 7.49824H1.25018C1.05122 7.49824 0.860407 7.57728 0.719721 7.71796C0.579036 7.85865 0.5 8.04946 0.5 8.24842C0.5 8.44738 0.579036 8.63819 0.719721 8.77887C0.860407 8.91956 1.05122 8.99859 1.25018 8.99859H8.44436ZM8.00176 0.746657C6.59975 0.740398 5.22404 1.12716 4.03068 1.86306C2.83732 2.59897 1.87406 3.65457 1.25018 4.91013C1.16064 5.0892 1.14591 5.29649 1.20922 5.48642C1.27253 5.67634 1.40869 5.83334 1.58776 5.92287C1.76682 6.0124 1.97411 6.02714 2.16404 5.96383C2.35396 5.90052 2.51096 5.76436 2.60049 5.58529C3.07475 4.62756 3.79615 3.81384 4.69015 3.22823C5.58414 2.64262 6.6183 2.30636 7.68575 2.2542C8.7532 2.20205 9.81522 2.43589 10.762 2.93155C11.7089 3.42722 12.5062 4.16673 13.0715 5.07367C13.6369 5.98061 13.9498 7.02206 13.978 8.09042C14.0061 9.15877 13.7485 10.2153 13.2316 11.1507C12.7148 12.0862 11.9575 12.8666 11.0381 13.4114C10.1187 13.9563 9.07048 14.2457 8.00176 14.2498C6.88316 14.2547 5.78586 13.944 4.83579 13.3536C3.88572 12.7631 3.12138 11.9167 2.6305 10.9115C2.54097 10.7325 2.38397 10.5963 2.19405 10.533C2.00412 10.4697 1.79683 10.4844 1.61776 10.574C1.4387 10.6635 1.30254 10.8205 1.23923 11.0104C1.17592 11.2003 1.19065 11.4076 1.28018 11.5867C1.87494 12.7836 2.77868 13.7999 3.8979 14.5304C5.01713 15.261 6.3112 15.6792 7.64627 15.7419C8.98134 15.8046 10.3089 15.5095 11.4917 14.8871C12.6745 14.2647 13.6695 13.3376 14.3738 12.2017C15.0781 11.0658 15.4662 9.76238 15.4979 8.42621C15.5296 7.09005 15.2037 5.76968 14.554 4.60169C13.9043 3.43369 12.9543 2.46048 11.8024 1.78273C10.6504 1.10497 9.3383 0.747284 8.00176 0.746657Z" fill="#71839B"/>
</g>
<defs>
<clipPath id="clip0_1948_354">
<rect width="15.0001" height="16.6866" fill="white" transform="translate(0.5 0.746582)"/>
</clipPath>
</defs>
</svg>
