<svg width="24" height="24" viewBox="0 0 24 24" fill="none" xmlns="http://www.w3.org/2000/svg">
<path d="M5.8125 16.2445H5.81259L9.30543 16.2466H9.30546C9.43432 16.2467 9.56147 16.276 9.67739 16.3323C9.79331 16.3885 9.89498 16.4703 9.97477 16.5715L11.9854 19.1213L11.9858 19.1219C11.9884 19.1251 11.9901 19.1265 11.9905 19.1268C11.991 19.1272 11.991 19.1271 11.9908 19.127C11.9904 19.1269 11.9912 19.1273 11.9944 19.1273H11.9945C11.9969 19.1273 11.9983 19.127 11.9987 19.1269C11.999 19.1267 11.9998 19.126 12.0011 19.1244C12.0025 19.1225 12.0044 19.12 12.0065 19.1173C12.0069 19.1169 12.0073 19.1164 12.0077 19.1159L14.0002 16.5716L14.0002 16.5716C14.08 16.4697 14.182 16.3873 14.2983 16.3307C14.4147 16.274 14.5424 16.2445 14.6719 16.2445H18.1875C18.8802 16.2445 19.4438 15.6808 19.4438 14.9883C19.4438 14.5171 19.8257 14.1352 20.2969 14.1352C20.7681 14.1352 21.15 14.5171 21.15 14.9883C21.15 16.622 19.8212 17.9508 18.1875 17.9508H15.0874L13.3513 20.1674C13.3512 20.1675 13.3512 20.1676 13.3511 20.1677C13.0256 20.5886 12.5334 20.8315 12.0012 20.8336L12.0006 20.8336L11.9942 20.8336C11.4634 20.8336 10.9709 20.5937 10.6437 20.1755C10.6436 20.1754 10.6435 20.1753 10.6434 20.1752L8.89088 17.9527L5.81208 17.9508L5.8125 16.2445ZM5.8125 16.2445C5.11997 16.2445 4.55625 15.6808 4.55625 14.9883V5.8125C4.55625 5.11997 5.11997 4.55625 5.8125 4.55625H18.1875C18.88 4.55625 19.4438 5.11997 19.4438 5.8125V11.4727C19.4438 11.9439 19.8257 12.3258 20.2969 12.3258C20.7681 12.3258 21.15 11.9439 21.15 11.4727V5.8125C21.15 4.17881 19.8212 2.85 18.1875 2.85H5.8125C4.17881 2.85 2.85 4.17881 2.85 5.8125V14.9883C2.85 16.6219 4.17874 17.9507 5.81199 17.9508L5.8125 16.2445ZM12.8531 13.7227V9.92578C12.8531 9.45457 12.4712 9.07266 12 9.07266C11.5288 9.07266 11.1469 9.45457 11.1469 9.92578V13.7227C11.1469 14.1939 11.5288 14.5758 12 14.5758C12.4712 14.5758 12.8531 14.1939 12.8531 13.7227ZM12 6.64687C11.5288 6.64687 11.1469 7.02879 11.1469 7.5C11.1469 7.97121 11.5288 8.35313 12 8.35313C12.4712 8.35313 12.8531 7.97121 12.8531 7.5C12.8531 7.02879 12.4712 6.64687 12 6.64687Z" fill="white" stroke="white" stroke-width="0.3"/>
</svg>
