<svg width="64" height="64" viewBox="0 0 64 64" fill="none" xmlns="http://www.w3.org/2000/svg">
<path d="M19.9333 53.3345C16.6409 53.3345 13.8293 52.1683 11.4987 49.8359C9.16622 47.5052 8 44.6936 8 41.4012C8 38.1603 9.13244 35.3816 11.3973 33.0652C13.6622 30.7488 16.4151 29.555 19.656 29.4839C19.9973 29.4839 20.3396 29.5096 20.6827 29.5612C21.024 29.611 21.3653 29.6705 21.7067 29.7399L12.9227 12.1025H25.6427L32 24.8225L38.36 12.1025H51.0773L42.3573 29.5559C42.6667 29.4865 42.9831 29.435 43.3067 29.4012C43.632 29.3656 43.9653 29.3479 44.3067 29.3479C47.5724 29.4314 50.3378 30.6314 52.6027 32.9479C54.8676 35.2643 56 38.0599 56 41.3345C56 44.6714 54.8338 47.5052 52.5013 49.8359C50.1707 52.1683 47.3369 53.3345 44 53.3345C43.4969 53.3345 42.9831 53.3061 42.4587 53.2492C41.9342 53.1941 41.4373 53.0874 40.968 52.9292C43.0711 52.0136 44.5467 50.4581 45.3947 48.2625C46.2427 46.0652 46.6667 43.7559 46.6667 41.3345C46.6667 37.2421 45.2453 33.7745 42.4027 30.9319C39.5582 28.0892 36.0907 26.6679 32 26.6679C27.9076 26.6679 24.44 28.0892 21.5973 30.9319C18.7547 33.7763 17.3333 37.2439 17.3333 41.3345C17.3333 43.7754 17.7244 46.1239 18.5067 48.3799C19.2889 50.6376 20.7911 52.1541 23.0133 52.9292C22.512 53.0874 22.0071 53.1941 21.4987 53.2492C20.992 53.3061 20.4702 53.3345 19.9333 53.3345ZM32 53.3345C28.6667 53.3345 25.8338 52.1683 23.5013 49.8359C21.1689 47.5034 20.0018 44.6696 20 41.3345C20 38.0012 21.1671 35.1683 23.5013 32.8359C25.8356 30.5034 28.6684 29.3363 32 29.3345C35.3333 29.3345 38.1671 30.5016 40.5013 32.8359C42.8356 35.1701 44.0018 38.003 44 41.3345C44 44.6679 42.8338 47.5016 40.5013 49.8359C38.1689 52.1701 35.3351 53.3363 32 53.3345ZM27.8347 47.4359L32 44.2679L36.1653 47.4359L34.6053 42.2945L38.768 39.3239H33.6267L32 33.8999L30.3733 39.3239H25.232L29.3947 42.2945L27.8347 47.4359Z" fill="white"/>
</svg>
