<svg width="100" height="100" viewBox="0 0 100 100" fill="none" xmlns="http://www.w3.org/2000/svg">
<g clip-path="url(#clip0_3956_39987)">
<path fill-rule="evenodd" clip-rule="evenodd" d="M100 50.6945C100 43.5835 96.5556 37.9724 89.9723 37.9724C83.3612 37.9724 79.3612 43.5835 79.3612 50.6391C79.3612 59.0003 84.0834 63.2224 90.8611 63.2224C94.1666 63.2224 96.6667 62.4724 98.5555 61.4168V55.8611C96.6665 56.8056 94.5 57.389 91.7499 57.389C89.0555 57.389 86.6665 56.4445 86.3611 53.1667H99.9443C99.9445 52.8056 100 51.3611 100 50.6945ZM86.2779 48.0556C86.2779 44.9166 88.1946 43.611 89.9445 43.611C91.639 43.611 93.4446 44.9166 93.4446 48.0556H86.2779ZM68.6389 37.9724C65.9168 37.9724 64.1666 39.25 63.1944 40.1391L62.8333 38.4169H56.7222V70.8059L63.6667 69.3336L63.6944 61.4726C64.6943 62.1949 66.1666 63.2226 68.611 63.2226C73.5833 63.2226 78.111 59.2225 78.111 50.417C78.0835 42.3613 73.5001 37.9724 68.6389 37.9724ZM66.9722 57.1113C65.3332 57.1113 64.3612 56.5279 63.6944 55.8057L63.6667 45.5C64.3889 44.6944 65.3889 44.1389 66.9722 44.1389C69.5 44.1389 71.2499 46.9722 71.2499 50.6111C71.2501 54.3334 69.5278 57.1113 66.9722 57.1113ZM47.1667 36.3334L54.1389 34.8334V29.1946L47.1667 30.6668V36.3334ZM47.1667 38.4444H54.1389V62.7499H47.1667V38.4444ZM39.6945 40.5L39.25 38.4444H33.2501V62.7499H40.1945V46.2777C41.8333 44.1387 44.6111 44.5278 45.4722 44.8332V38.4444C44.5834 38.1112 41.3333 37.5001 39.6945 40.5ZM25.8056 32.4167L19.0278 33.8612L19 56.1111C19 60.2223 22.0833 63.2501 26.1945 63.2501C28.4723 63.2501 30.1389 62.8333 31.0556 62.3333V56.6945C30.1668 57.0556 25.7779 58.3333 25.7779 54.2223V44.3612H31.0556V38.4446H25.7779L25.8056 32.4167ZM7.02785 45.5C7.02785 44.4166 7.91668 44.0001 9.38889 44.0001C11.4999 44.0001 14.1666 44.6389 16.2779 45.7779V39.25C13.9723 38.3335 11.6945 37.9724 9.38889 37.9724C3.75005 37.9724 0 40.9168 0 45.8334C0 53.5001 10.5556 52.2779 10.5556 55.5834C10.5556 56.8613 9.44455 57.2779 7.88895 57.2779C5.58338 57.2779 2.63896 56.3334 0.305652 55.0557V61.6668C2.88895 62.7778 5.50018 63.2501 7.88895 63.2501C13.6667 63.2501 17.639 60.3889 17.639 55.4168C17.6112 47.139 7.02785 48.6112 7.02785 45.5Z" fill="#635BFF"/>
</g>
<defs>
<clipPath id="clip0_3956_39987">
<rect width="100" height="100" fill="white"/>
</clipPath>
</defs>
</svg>
